<?xml version="1.0" standalone="no"?>
<!DOCTYPE svg PUBLIC "-//W3C//DTD SVG 20010904//EN"
 "http://www.w3.org/TR/2001/REC-SVG-20010904/DTD/svg10.dtd">
<svg version="1.0" xmlns="http://www.w3.org/2000/svg"
 width="700.000000pt" height="700.000000pt" viewBox="0 0 700.000000 700.000000"
 preserveAspectRatio="xMidYMid meet">
<metadata>
Created by potrace 1.11, written by Peter Selinger 2001-2013
</metadata>
<g transform="translate(0.000000,700.000000) scale(0.100000,-0.100000)"
fill="#000000" stroke="none">
<path d="M2020 5052 c0 -4 23 -18 51 -31 106 -51 196 -172 236 -321 17 -60 18
-144 18 -1145 0 -1009 -1 -1085 -18 -1158 -34 -142 -111 -266 -202 -324 -25
-15 -45 -31 -45 -35 0 -5 162 -8 360 -8 198 0 360 3 360 8 0 4 -16 16 -35 26
-82 45 -166 157 -219 296 -21 54 -21 66 -24 965 l-3 910 34 -35 c19 -19 360
-375 758 -790 397 -415 876 -914 1063 -1109 l341 -355 5 1370 c5 1266 7 1373
23 1429 40 139 111 240 201 288 l41 22 -187 3 c-104 1 -272 1 -375 0 l-188 -3
49 -25 c71 -36 158 -120 194 -187 66 -126 65 -111 69 -822 3 -393 1 -642 -5
-640 -5 2 -359 381 -787 842 l-777 837 -469 0 c-258 0 -469 -3 -469 -8z"/>
</g>
</svg>
