<?xml version="1.0" encoding="utf-8"?>
<!-- Generator: Adobe Illustrator 22.0.1, SVG Export Plug-In . SVG Version: 6.00 Build 0)  -->
<svg version="1.1" id="Layer_1" xmlns="http://www.w3.org/2000/svg" xmlns:xlink="http://www.w3.org/1999/xlink" x="0px" y="0px"
	 viewBox="0 0 124 124" style="enable-background:new 0 0 124 124;" xml:space="preserve">
<style type="text/css">
	.st0{fill:#004A98;}
	.st1{fill:#FFFFFF;}
	.st2{display:none;}
</style>
<g id="Layer_1_1_">
	<g>
		
			<rect x="9.5" y="9.5" transform="matrix(0.9848 -0.1737 0.1737 0.9848 -9.8192 11.7021)" class="st0" width="104.9" height="104.9"/>
		<g>
			<g>
				<path class="st1" d="M34,41.6c1.3,0,2.6,0,3.9,0c0.7,0,0.9,0.2,0.9,0.9c0.1,3.5-1.2,6.3-4.2,8.1c-4.7,2.9-10.9,0.4-12.5-4.9
					c-1.4-5,1.5-9.9,6.5-11.1c3-0.7,5.6,0.2,7.8,2.4c0.4,0.4,0.4,0.7,0,1.1c-0.4,0.5-0.8,0.9-1.2,1.4s-0.7,0.6-1.2,0.1
					c-0.8-0.7-1.7-1.2-2.8-1.4c-2-0.4-4.2,0.7-5.1,2.7c-1,1.9-0.6,4.4,1,5.9c1.5,1.4,3.7,1.7,5.5,0.7c0.9-0.5,1.5-1.2,2-2.2
					c0.2-0.4,0.2-0.5-0.3-0.5c-1.4,0-2.9,0-4.3,0c-0.8,0-1-0.2-1-1c0-0.5,0-0.9,0-1.4c0-0.7,0.2-0.9,0.9-0.9
					C31.3,41.6,32.6,41.6,34,41.6z"/>
				<path class="st1" d="M81.3,43.2c0,4.8-3.9,8.7-8.7,8.7c-4.9,0-8.8-3.9-8.7-8.7c0-4.8,3.9-8.7,8.7-8.7
					C77.4,34.6,81.3,38.4,81.3,43.2z M77.5,43.2c0-2.7-2.2-5-4.9-5c-2.7,0-4.9,2.2-5,4.9c0,2.8,2.2,5,4.9,5
					C75.3,48.2,77.5,45.9,77.5,43.2z"/>
				<path class="st1" d="M60.2,43.2c0,4.9-3.9,8.7-8.8,8.7c-4.8,0-8.6-3.9-8.6-8.7s3.9-8.7,8.8-8.7C56.3,34.6,60.2,38.5,60.2,43.2z
					 M46.5,43.2c0,2.8,2.2,5,4.9,5s5-2.3,5-5s-2.3-4.9-5-4.9S46.5,40.5,46.5,43.2z"/>
				<path class="st1" d="M86.2,43.2c0-2.5,0-5,0-7.5c0-0.9,0.1-1,1-1c1.9,0,5.6-0.1,7.6,0.1c3.5,0.4,6.4,3.2,7.1,6.7s-0.8,7.1-3.7,9
					c-1.4,0.9-2.9,1.3-4.6,1.4c-1.6,0-4.9,0-6.5,0c-0.7,0-0.9-0.2-0.9-0.9c0,0,0,0,0-0.1C86.2,48.3,86.2,45.7,86.2,43.2z M90,43.2
					c0,1.4,0,2.9,0,4.3c0,0.4,0.1,0.5,0.5,0.5c0.7,0,3,0,3.7-0.1c2.2-0.2,4-2.1,4.2-4.2c0.2-2.4-1.2-4.5-3.5-5.1
					c-0.9-0.2-3.5-0.2-4.3-0.2c-0.4,0-0.6,0.1-0.5,0.5C90,40.4,90,41.8,90,43.2z"/>
			</g>
			<g>
				<path class="st1" d="M81.3,66c0,4.9-3.9,8.7-8.8,8.7c-4.8,0-8.6-3.9-8.6-8.7c0-4.8,4-8.7,8.8-8.6C77.4,57.3,81.3,61.2,81.3,66z
					 M72.5,70.9c2.7,0,5-2.3,5-5s-2.3-5-5-5s-4.9,2.2-4.9,4.9C67.6,68.7,69.8,70.9,72.5,70.9z"/>
				<path class="st1" d="M60.2,65.9c0,4.8-3.9,8.7-8.7,8.7s-8.7-3.9-8.7-8.6c0-4.8,3.8-8.7,8.7-8.7C56.3,57.2,60.1,61.1,60.2,65.9z
					 M51.4,70.9c2.7,0,5-2.2,5-4.9c0-2.7-2.3-5-4.9-5c-2.7,0-4.9,2.2-5,4.9C46.5,68.6,48.7,70.9,51.4,70.9z"/>
				<path class="st1" d="M89.8,57.4c1.5,0,4.7-0.1,6.1,0.3c3.8,1,6.5,4.8,6.2,8.8s-3.4,7.4-7.3,7.9c-2.1,0.3-5.8,0.1-7.9,0.1
					c-0.5,0-0.7-0.3-0.7-0.7c0-0.1,0-0.2,0-0.3c0-5,0-10,0-15c0-0.9,0.1-1,1-1C88.1,57.4,88.9,57.4,89.8,57.4z M90,65.9
					c0,1.5,0,2.9,0,4.4c0,0.4,0.1,0.5,0.5,0.5c0.7,0,3,0,3.7-0.1c2.2-0.2,4-2.1,4.2-4.2c0.2-2.4-1.2-4.5-3.5-5.1
					c-0.9-0.2-3.5-0.2-4.3-0.2c-0.4,0-0.6,0.1-0.5,0.5C90,63.1,90,64.5,90,65.9z"/>
				<path class="st1" d="M23.6,65.9c0-2.5,0-5,0-7.5c0-0.9,0.2-1,1-1c2.5,0,10.5,0,12.9,0c0.9,0,1.1,0.2,1.1,1.1c0,0.6,0,1.2,0,1.8
					c0,0.7-0.2,0.8-0.8,0.8c-1.4,0-8.5,0-9.9,0c-0.4,0-0.6,0.1-0.5,0.5c0,0.7,0,1.4,0,2.1c0,0.4,0.1,0.5,0.5,0.5c1.3,0,7.3,0,8.5,0
					c0.8,0,0.9,0.1,1,1c0,0.5,0,1,0,1.5c0,0.7-0.2,0.8-0.8,0.8c-1.3,0-7.3,0-8.5,0c-0.5,0-0.6,0.2-0.6,0.6c0,1.8,0,3.5,0,5.3
					c0,0.8-0.2,1-1,1c-0.6,0-1.2,0-1.8,0c-0.8,0-1-0.2-1-1C23.6,71,23.6,68.5,23.6,65.9z"/>
			</g>
		</g>
		<g>
			<path class="st1" d="M25.6,83.3h-0.8c-0.2,0-0.3-0.1-0.3-0.3s0.2-0.3,0.3-0.3h0.8V82c0-0.9,0.2-1.5,0.7-2
				c0.4-0.4,0.9-0.6,1.6-0.6c0.4,0,0.7,0,0.9,0.1c0.2,0,0.3,0.2,0.3,0.3c0,0.2-0.2,0.4-0.4,0.3c-0.2,0-0.5-0.1-0.8-0.1
				c-1,0-1.5,0.6-1.5,1.9v0.7h2.4c0.2,0,0.3,0.1,0.3,0.3c0,0.2-0.2,0.3-0.3,0.3h-2.4v6.6c0,0.2-0.1,0.4-0.4,0.4
				c-0.2,0-0.4-0.2-0.4-0.4C25.6,89.8,25.6,83.3,25.6,83.3z"/>
			<path class="st1" d="M29.9,86.4L29.9,86.4c0-2.2,1.6-4,3.9-4c2.2,0,3.9,1.8,3.9,3.9l0,0c0,2.1-1.6,4-3.9,4S29.9,88.5,29.9,86.4z
				 M36.9,86.4L36.9,86.4c0-1.9-1.4-3.3-3.1-3.3c-1.8,0-3.1,1.5-3.1,3.2l0,0c0,1.8,1.4,3.3,3.1,3.3C35.6,89.6,36.9,88.2,36.9,86.4z"
				/>
			<path class="st1" d="M46.2,89.8c0,0.2-0.1,0.4-0.4,0.4s-0.4-0.1-0.4-0.4v-1.1c-0.5,0.9-1.3,1.6-2.7,1.6c-1.9,0-3-1.3-3-3.1v-4.3
				c0-0.2,0.1-0.4,0.4-0.4s0.4,0.1,0.4,0.4v4.2c0,1.6,0.9,2.6,2.4,2.6s2.6-1.1,2.6-2.7v-4.1c0-0.2,0.1-0.4,0.4-0.4
				c0.2,0,0.4,0.1,0.4,0.4v6.9H46.2z"/>
			<path class="st1" d="M49,82.9c0-0.2,0.1-0.4,0.4-0.4s0.4,0.1,0.4,0.4V84c0.5-0.9,1.3-1.6,2.7-1.6c1.9,0,3,1.3,3,3.1v4.3
				c0,0.2-0.1,0.4-0.4,0.4c-0.2,0-0.4-0.1-0.4-0.4v-4.2c0-1.6-0.9-2.6-2.4-2.6s-2.6,1.1-2.6,2.7v4.1c0,0.2-0.1,0.4-0.4,0.4
				s-0.4-0.1-0.4-0.4v-6.9H49z"/>
			<path class="st1" d="M65.1,89.8c0,0.2-0.1,0.4-0.4,0.4c-0.2,0-0.4-0.1-0.4-0.4v-1.3c-0.7,1-1.6,1.9-3.1,1.9
				c-1.8,0-3.7-1.5-3.7-3.9l0,0c0-2.5,1.9-4,3.7-4c1.5,0,2.5,0.9,3.1,1.8v-4.6c0-0.2,0.1-0.4,0.4-0.4c0.2,0,0.4,0.1,0.4,0.4V89.8z
				 M58.4,86.3L58.4,86.3c0,2,1.4,3.3,3,3.3s3.1-1.3,3.1-3.2l0,0c0-1.9-1.5-3.2-3.1-3.2C59.7,83.1,58.4,84.3,58.4,86.3z"/>
			<path class="st1" d="M67.2,88L67.2,88c0-1.6,1.3-2.5,3.3-2.5c1.1,0,1.8,0.1,2.5,0.3v-0.3c0-1.5-0.9-2.3-2.5-2.3
				c-0.8,0-1.5,0.2-2.2,0.5c-0.1,0-0.1,0-0.2,0c-0.2,0-0.3-0.2-0.3-0.3s0.1-0.3,0.2-0.3c0.8-0.3,1.5-0.6,2.5-0.6s1.8,0.3,2.4,0.8
				c0.5,0.5,0.8,1.2,0.8,2.1v4.4c0,0.2-0.1,0.4-0.4,0.4c-0.2,0-0.4-0.1-0.4-0.4v-0.9c-0.5,0.7-1.5,1.4-2.9,1.4
				C68.7,90.3,67.2,89.5,67.2,88z M73.1,87.3v-0.8c-0.6-0.2-1.5-0.3-2.6-0.3c-1.6,0-2.5,0.7-2.5,1.8l0,0c0,1.1,1,1.7,2.2,1.7
				C71.7,89.6,73.1,88.7,73.1,87.3z"/>
			<path class="st1" d="M76.7,88.2v-5h-0.8c-0.2,0-0.3-0.2-0.3-0.3c0-0.2,0.2-0.3,0.3-0.3h0.8v-2.1c0-0.2,0.1-0.4,0.4-0.4
				s0.4,0.2,0.4,0.4v2.1h2.4c0.2,0,0.3,0.2,0.3,0.3c0,0.2-0.2,0.3-0.3,0.3h-2.4v4.9c0,1.1,0.6,1.5,1.5,1.5c0.5,0,0.8-0.1,0.9-0.1
				c0.2,0,0.3,0.1,0.3,0.3c0,0.1-0.1,0.3-0.2,0.3c-0.3,0.1-0.6,0.2-1.1,0.2C77.6,90.3,76.7,89.6,76.7,88.2z"/>
			<path class="st1" d="M82.2,80c0-0.3,0.2-0.4,0.4-0.4c0.2,0,0.5,0.2,0.5,0.4v0.3c0,0.3-0.2,0.4-0.5,0.4s-0.4-0.2-0.4-0.4V80z
				 M82.3,82.9c0-0.2,0.1-0.4,0.4-0.4c0.2,0,0.4,0.1,0.4,0.4v6.9c0,0.2-0.1,0.4-0.4,0.4c-0.2,0-0.4-0.1-0.4-0.4V82.9z"/>
			<path class="st1" d="M85.4,86.4L85.4,86.4c0-2.2,1.6-4,3.9-4c2.2,0,3.9,1.8,3.9,3.9l0,0c0,2.1-1.6,4-3.9,4S85.4,88.5,85.4,86.4z
				 M92.4,86.4L92.4,86.4c0-1.9-1.4-3.3-3.1-3.3c-1.8,0-3.1,1.5-3.1,3.2l0,0c0,1.8,1.4,3.3,3.1,3.3C91.1,89.6,92.4,88.2,92.4,86.4z"
				/>
			<path class="st1" d="M95.4,82.9c0-0.2,0.1-0.4,0.4-0.4s0.4,0.1,0.4,0.4V84c0.5-0.9,1.3-1.6,2.7-1.6c1.9,0,3,1.3,3,3.1v4.3
				c0,0.2-0.1,0.4-0.4,0.4c-0.2,0-0.4-0.1-0.4-0.4v-4.2c0-1.6-0.9-2.6-2.4-2.6s-2.6,1.1-2.6,2.7v4.1c0,0.2-0.1,0.4-0.4,0.4
				s-0.4-0.1-0.4-0.4L95.4,82.9L95.4,82.9z"/>
		</g>
	</g>
</g>
<g id="Layer_3">
</g>
<g id="Isolation_Mode" class="st2">
</g>
</svg>
