<?xml version="1.0" encoding="utf-8"?>
<!-- Generator: Adobe Illustrator 24.0.3, SVG Export Plug-In . SVG Version: 6.00 Build 0)  -->
<svg version="1.1" id="Ebene_1" xmlns="http://www.w3.org/2000/svg" xmlns:xlink="http://www.w3.org/1999/xlink" x="0px" y="0px"
	 viewBox="0 0 512 512" style="enable-background:new 0 0 512 512;" xml:space="preserve">
<style type="text/css">
	.st0{fill:#038285;}
	.st1{fill:#1D1D1B;}
</style>
<g>
	<g>
		<g>
			<path class="st0" d="M339.8,235.8c-7-7.8-11-7.7-17.7-17.8c-2.2,4.6,1,11.2-3,14.6c-0.1,0.1,1.4,1.3,1.9,1.2
				c6.8-1.2,11.1,2.3,15,7c0.7,0.8,4.9,4.8,5.6,4.7c1.1-0.1-0.1-3.4-0.4-4.8C340.9,239.1,340.9,237,339.8,235.8z M256.4,103.7
				c-90.9,32.1-156,118.8-156,220.6c0,6.4,0.3,12.8,0.8,19.1c41.3,36.6,95.6,58.9,155.2,58.9s113.9-22.2,155.2-58.9
				c0.5-6.3,0.8-12.7,0.8-19.1C412.3,222.5,347.2,135.8,256.4,103.7z M385.5,282.3c-0.9,1.7-2.6,4.3-5.2,2.8
				c-6.6-3.8-14.8-4-20.4-10.7c-2.5-3-6.3-6.4-11.4-7.1c-4.2-0.5-6.5-4-7.6-8.1c-2.1-7.5-9.1-9.4-15.1-11.6
				c-4.5-1.6-9.1,0.7-12.6,4.3c-1.9,2-1.4,3.7,1.6,4.4c8.8,1.8,15.8,6.1,21.1,13.5c2.3,3.1,5.1,5.8,9.1,7.4c4,1.6,3.7,3.4-0.4,8.2
				c-1.9,2.3-2.2,4.9,0.1,6.7c3.1,2.4,3.4,5.4,3.1,8.8c-0.1,1.6,1.1,4.3-1.6,4.5c-1.9,0.1-5.2-0.7-5.7-1.9c-1.6-4-5.5-5-8-7.7
				c-3-3.1-5.6-6.6-10.8-6.5c-1.8,0-3.7-1.8-5.4-3c-2.9-2-2.9-3.8-0.1-6.1c1-0.8,2.7-0.9,3.7-1.7c0.7-0.6,0.9-1.9,1-2.9
				c0-0.4-0.9-1.3-1.4-1.4c-7.6-0.4-11.6-5-15.6-11c-3.6-5.3-9.4-9.1-14.3-13.6c0-1.1-27.3,2.7-27.3,2.7s-31.1-2.2-35.4,1.8
				c-2.1,0.2-4.3,0.4-6.4,0.8c-1.3,0.2-3.3,1.6-3.7,1.2c-6.2-6.2-7.6,0.5-10,3.7c-1,1.3-2.4,4-1.9,4.4c2,2,4.7,2.1,6.6-0.3
				c2.1-2.7,5.2-4.5,7.5-2.7c3.5,2.5,0.4,5.9-1.1,8.4c-1.6,2.7-3.8,5.3-6.1,7.5c-2,1.9-4.9,2.9-6.8,4.9c-2,2-3.7,5-4.5,7.9
				c-1.2,4.3-2.3,5.6-4.4,6.2c-2.3,0.6-3.6-1.3-5.1-2.9c-1.5-1.6-3-3.4-4.8-4.6c-0.8-0.6-2.9-0.4-3.7,0.3c-3.8,3.5-7.5,7.2-11.1,11
				c-4.5,4.7-10.1,7.6-15.4,11.2c-4.9,3.4-9.9,3.8-15.3,3.5c-1.1,0-2.7-1-3.1-1.9c-0.4-1.2-0.3-3.3,0.5-4.1c1.7-1.7,4.3-2.4,6-4.1
				c8.8-8.6,17.4-17.3,26-26c0.6-0.7,1.1-2.2,0.7-2.9c-0.3-0.7-1.8-1.2-2.7-1.1c-2.1,0.2-4.8,0.1-6.1,1.3
				c-4.7,4.5-11.3,5.5-16.3,9.3c-1.5,1.1-3.6,0.6-4.1,3.8c-0.6,3.5-4.8,3.9-8.3,3.4c-0.9-0.1-2.5-1-2.5-1.4
				c0.4-4.7-3.5-7.7-4.4-11.6c-0.9-4.1-0.6-8.3,3.2-12c6.5-6.3,13.4-12.2,18.5-20.1c5.5-8.7,15.1-13.2,23.4-18.8
				c3.3-2.2,8.4-2.6,12,1.5c2.2,2.5,4.4,2.4,7.7,1.1c9.5-3.9,15.7-11.3,22.3-18.4c0.9-1,1-2.6,1.9-3.6c4.1-5,4.7-5.1,9.3-0.5
				c4.4,4.5,20.8,7.9,27.7,7.2c-0.6-2.4,26.9-7.3,24.7-9.3c4.2-7,15.1-21,22.1-25.8c5.5-3.8,8.9-10.3,13.6-15.3
				c3.7-4,4.2-3.9,7.6,0.1c2,2.4,4.3,5.1,4.9,7.9c0.7,3.5,1.7,5.2,4.9,7.4c7.9,5.5,15.3,12,18.5,21.7c0.1,0.3,0.7,0.5,0.7,0.8
				c-0.3,6.5,2.9,10.2,9.2,11.4c5.3,11.3,19,16.3,21.6,30.1c0.9,4.7,0.8,9.3,1.1,13.9c0.1,1.4-1.6,3.5-2.9,4.1
				c-1.1,0.5-3.7-0.5-4.4-1.6c-3.7-6-9.5-4.5-14.9-4.6c0.8,7.1,6.5,10,11.5,13.4c4.3,2.9,9,5.3,13.3,8.3
				C385.1,278.7,386,281.4,385.5,282.3z"/>
		</g>
	</g>
	<g>
		<g>
			<path class="st1" d="M259,11.3l-3-1.1l-3,1.1C101.7,64.8,0,208.7,0,369.2c0,10.3,0.4,20.7,1.3,31l0.3,3.6l2.7,2.4
				c69.4,61.6,158.8,95.5,251.8,95.5s182.3-33.9,251.8-95.5l2.7-2.4l0.3-3.6c0.8-10.3,1.3-20.7,1.3-31
				C512,208.7,410.3,64.8,259,11.3z M493.1,395.1c-65.7,57.2-149.8,88.6-237.1,88.6c-87.3,0-171.4-31.4-237.1-88.6
				c-0.6-8.6-0.9-17.3-0.9-25.9c0-151.9,95.5-288.1,238-339.9c142.5,51.8,238,188,238,339.9C494,377.8,493.7,386.5,493.1,395.1z
				 M144.5,127.1c0.4-0.3,0.7-0.6,1-0.7s0.5-0.2,0.7-0.1s0.4,0.2,0.7,0.4c0.2,0.2,0.4,0.4,0.7,0.7l9.6,10.6c0.2,0.3,0.5,0.5,0.6,0.7
				c0.2,0.2,0.3,0.4,0.3,0.7c0,0.2,0,0.5-0.2,0.7c-0.1,0.3-0.4,0.6-0.8,0.9l-0.6,0.5l2.4,2.6c0.7-0.6,1.4-1.3,2.1-1.9
				c0.7-0.6,1.5-1.4,2.4-2.2c0.5-0.4,0.9-0.8,1.3-1.2c0.4-0.4,0.8-0.7,1.1-1c0.4-0.3,0.7-0.6,1.1-0.9s0.7-0.6,1.1-0.9l-2.4-2.6
				l-0.6,0.6c-0.4,0.3-0.7,0.6-0.9,0.7c-0.2,0.1-0.4,0.2-0.6,0.2c-0.2,0-0.4-0.1-0.5-0.3s-0.4-0.4-0.6-0.6L152,122.8
				c-0.2-0.2-0.4-0.4-0.5-0.6c-0.1-0.2-0.2-0.4-0.2-0.6c0-0.2,0.1-0.4,0.2-0.7c0.1-0.2,0.4-0.5,0.7-0.8l0.6-0.6l-2.4-2.6
				c-0.4,0.4-0.7,0.7-1.1,1c-0.4,0.3-0.7,0.7-1.1,1c-0.4,0.4-0.8,0.7-1.3,1.1c-0.5,0.4-1,0.9-1.6,1.4c-0.3,0.3-0.6,0.5-0.9,0.8
				c-0.3,0.3-0.6,0.5-0.9,0.8c-0.3,0.3-0.7,0.6-1,0.9c-0.4,0.3-0.8,0.7-1.2,1.1l2.4,2.6L144.5,127.1z M123.8,148.8
				c0.3-0.3,0.5-0.5,0.8-0.7c0.2-0.1,0.4-0.2,0.6-0.2c0.2,0,0.4,0.1,0.7,0.3c0.2,0.2,0.5,0.4,0.8,0.7l10.6,9.6
				c0.4,0.3,0.7,0.6,0.9,0.9c0.2,0.2,0.3,0.5,0.3,0.7s0,0.4-0.2,0.6c-0.1,0.2-0.3,0.4-0.5,0.7l-0.9,1l2.6,2.4c0.3-0.3,0.6-0.7,0.9-1
				c0.3-0.3,0.6-0.6,0.9-1c0.3-0.3,0.6-0.7,0.9-1.1c0.3-0.4,0.7-0.8,1.2-1.3c0.5-0.5,1-1,1.4-1.5c0.4-0.5,0.8-0.9,1.2-1.3
				c0.4-0.4,0.7-0.8,1.1-1.2c0.4-0.4,0.7-0.8,1.1-1.2l-2.6-2.4l-0.8,0.9c-0.3,0.3-0.5,0.5-0.7,0.7c-0.2,0.2-0.4,0.3-0.6,0.3
				c-0.2,0-0.4,0-0.6-0.1c-0.2-0.1-0.4-0.3-0.7-0.5l-4.7-4.3l2.4-2.6c0.2-0.2,0.4-0.4,0.6-0.6c0.2-0.1,0.4-0.2,0.5-0.3
				c0.2,0,0.4,0,0.6,0.1c0.2,0.1,0.5,0.2,0.8,0.4l1-1.1l-4.8-4.4l-1,1.1c0.3,0.3,0.5,0.6,0.6,0.8c0.1,0.2,0.1,0.4,0.1,0.6
				c0,0.2-0.1,0.4-0.3,0.6c-0.1,0.2-0.3,0.4-0.5,0.6l-2.3,2.6l-5.3-4.8l4.5-5c0.2-0.2,0.4-0.5,0.7-0.7c0.2-0.2,0.5-0.3,0.7-0.4
				c0.3-0.1,0.6,0,0.9,0.1c0.3,0.1,0.7,0.4,1.2,0.8l0.7,0.6l2.6-2.8l-5.5-5l-15.1,16.7l2.6,2.3L123.8,148.8z M111,165.4
				c0.3-0.4,0.6-0.7,0.8-0.8c0.2-0.2,0.5-0.2,0.7-0.2c0.2,0,0.5,0.1,0.7,0.2c0.2,0.1,0.5,0.3,0.8,0.6l11.4,8.6
				c0.3,0.2,0.5,0.4,0.8,0.6c0.2,0.2,0.3,0.4,0.4,0.6c0.1,0.2,0.1,0.5,0,0.7c-0.1,0.3-0.3,0.6-0.6,1l-0.5,0.6l2.8,2.1
				c0.6-0.7,1.1-1.5,1.7-2.2c0.5-0.7,1.2-1.6,1.9-2.6c0.4-0.5,0.7-1,1.1-1.4c0.3-0.4,0.6-0.8,0.9-1.2c0.3-0.4,0.6-0.8,0.9-1.1
				c0.3-0.4,0.6-0.7,0.9-1.1l-2.8-2.1l-0.5,0.7c-0.3,0.4-0.6,0.7-0.8,0.9c-0.2,0.2-0.4,0.3-0.6,0.3c-0.2,0-0.4,0-0.6-0.1
				c-0.2-0.1-0.4-0.3-0.7-0.5l-12.1-9.1c-0.2-0.2-0.4-0.3-0.6-0.5c-0.2-0.2-0.3-0.4-0.3-0.6c0-0.2,0-0.4,0.1-0.7
				c0.1-0.3,0.3-0.6,0.6-1l0.5-0.7l-2.8-2.1c-0.3,0.4-0.6,0.8-0.9,1.2c-0.3,0.4-0.6,0.8-0.9,1.2c-0.3,0.4-0.7,0.9-1,1.4
				c-0.4,0.5-0.8,1.1-1.3,1.7c-0.2,0.3-0.5,0.6-0.7,0.9c-0.2,0.3-0.5,0.6-0.7,1c-0.3,0.3-0.5,0.7-0.8,1.1c-0.3,0.4-0.6,0.8-1,1.3
				l2.8,2.1L111,165.4z M84.4,258.4c0.3,0.1,0.5,0.3,0.6,0.5s0.2,0.4,0.1,0.7c0,0.3-0.1,0.7-0.3,1.1l-0.3,0.9l3.3,1.1
				c0.2-0.5,0.3-1,0.5-1.5c0.2-0.5,0.3-1,0.5-1.5c0.2-0.5,0.4-1.1,0.5-1.6c0.2-0.6,0.4-1.2,0.6-1.8c0.2-0.6,0.4-1.1,0.5-1.6
				c0.2-0.5,0.3-1,0.5-1.4c0.1-0.4,0.3-0.9,0.4-1.3c0.1-0.4,0.3-0.8,0.4-1.3l-3.3-1.1l-0.3,0.9c-0.1,0.4-0.3,0.7-0.4,1
				c-0.1,0.2-0.3,0.4-0.4,0.5c-0.2,0.1-0.4,0.1-0.6,0.1c-0.3,0-0.6-0.1-1-0.2l-5-1.7l1.3-3.7c0.7-1.9,1-3.6,1.1-5
				c0.1-1.4,0-2.6-0.4-3.6c-0.4-1-0.9-1.8-1.7-2.5c-0.8-0.6-1.7-1.1-2.7-1.5c-1.1-0.4-2.1-0.5-3.1-0.4c-1,0.1-2,0.4-2.9,1
				c-0.9,0.6-1.8,1.5-2.5,2.6c-0.8,1.2-1.5,2.7-2.1,4.5l-4.3,12.8l3.3,1.1l0.3-1c0.2-0.4,0.3-0.8,0.5-1c0.2-0.2,0.4-0.4,0.6-0.4
				s0.5-0.1,0.7,0c0.3,0.1,0.5,0.1,0.8,0.2l13.6,4.6C83.8,258.1,84.1,258.3,84.4,258.4z M78.5,246.1l-1,3l-7.7-2.6l0.9-2.7
				c0.3-0.9,0.6-1.7,1-2.2c0.4-0.6,0.8-1,1.2-1.3c0.5-0.3,1-0.5,1.5-0.5c0.5,0,1.1,0.1,1.8,0.3c1.3,0.4,2.2,1.2,2.5,2.2
				C79.1,243.3,79,244.6,78.5,246.1z M81,220.5c0.4,0.4,0.9,1,1.5,1.6c0.6,0.6,1.2,1.2,1.9,1.9c0.7,0.7,1.4,1.4,2.1,2.1
				c0.7,0.7,1.4,1.4,2.1,2.1c0.7,0.7,1.3,1.3,1.9,1.9c0.6,0.6,1.1,1.1,1.5,1.5c0.4,0.4,0.7,0.8,0.9,1c0.3,0.3,0.5,0.6,0.6,0.8
				c0.1,0.2,0.2,0.4,0.2,0.7c0,0.2,0,0.5-0.1,0.8c-0.1,0.3-0.2,0.7-0.4,1.1l3.2,1.5c0.2-0.4,0.4-0.8,0.5-1.2
				c0.2-0.4,0.3-0.7,0.5-1.1c0.2-0.4,0.3-0.7,0.5-1.1c0.2-0.4,0.3-0.8,0.5-1.2c0.4-0.9,0.8-1.7,1.1-2.4c0.4-0.7,0.7-1.5,1-2.2
				l-2.9-1.3c0,0-0.1,0.1-0.1,0.3c-0.1,0.1-0.1,0.3-0.2,0.4c-0.1,0.1-0.1,0.3-0.2,0.4c-0.1,0.1-0.1,0.2-0.1,0.2
				c-0.2,0.4-0.4,0.6-0.5,0.7c-0.2,0.1-0.4,0.1-0.6,0c-0.1,0-0.2-0.1-0.3-0.2c-0.1-0.1-0.3-0.2-0.4-0.3c-0.1-0.1-0.3-0.2-0.6-0.5
				c-0.3-0.3-0.7-0.6-1-1c-0.4-0.3-0.7-0.7-1-1c-0.3-0.3-0.5-0.5-0.6-0.6l3.8-8.3l3.9,0.4c0.3,0,0.6,0.1,0.8,0.1
				c0.2,0,0.4,0.1,0.6,0.2c0.2,0.1,0.4,0.3,0.4,0.6c0,0.3-0.1,0.7-0.4,1.3c0,0,0,0.1-0.1,0.2c0,0.1-0.1,0.2-0.1,0.3
				c0,0.1-0.1,0.2-0.1,0.3c0,0.1-0.1,0.2-0.1,0.2l3,1.4c0.5-1.2,1-2.2,1.4-3.2c0.4-1,0.9-2,1.4-3c0.4-0.9,0.8-1.6,1.1-2.3
				c0.3-0.7,0.6-1.3,1-2l-3.2-1.5c-0.3,0.6-0.6,1.1-0.8,1.3s-0.5,0.5-0.9,0.6c-0.3,0.1-0.8,0.1-1.4,0.1c-0.6-0.1-1.3-0.1-2.3-0.2
				c-0.2,0-0.7,0-1.4-0.1c-0.7-0.1-1.5-0.1-2.5-0.2c-1-0.1-2-0.2-3.2-0.2c-1.1-0.1-2.3-0.2-3.5-0.3c-2.7-0.2-5.7-0.4-9-0.7l-3.2,6.9
				l2.8,2.3C80.2,219.7,80.6,220,81,220.5z M82,215.8l10.9,1.1l-3,6.6L82,215.8L82,215.8z M392.6,155.1c0.1,0.3,0.2,0.6,0.1,0.8
				c0,0.2-0.2,0.4-0.3,0.6c-0.2,0.2-0.4,0.4-0.7,0.6l-11.9,8.8c-0.3,0.2-0.5,0.4-0.7,0.5s-0.4,0.2-0.6,0.2c-0.2,0-0.5-0.1-0.7-0.3
				c-0.3-0.2-0.5-0.5-0.9-1l-0.4-0.5l-2.8,2.1c0.3,0.4,0.5,0.7,0.8,1.1c0.3,0.3,0.5,0.7,0.8,1.1c0.3,0.4,0.6,0.8,0.9,1.2
				c0.3,0.4,0.7,0.9,1,1.4c0.4,0.5,0.7,1,1.1,1.5c0.3,0.5,0.6,0.9,0.9,1.3c0.3,0.4,0.6,0.8,0.9,1.2s0.6,0.8,0.9,1.2l2.8-2.1
				l-0.5-0.7c-0.2-0.3-0.4-0.6-0.5-0.8c-0.1-0.2-0.2-0.4-0.2-0.6c0-0.2,0-0.3,0.2-0.5c0.1-0.2,0.3-0.3,0.5-0.5l5.4-3.9l1,1.4
				c0.4,0.6,0.8,1.1,1,1.6c0.2,0.5,0.3,0.9,0.3,1.4c-0.2,0.5-0.5,1.1-0.9,1.8c-0.4,0.6-1,1.3-1.7,2.1c-0.8,0.9-1.5,1.7-2,2.5
				c-0.5,0.8-0.8,1.6-1,2.4c-0.1,0.8-0.1,1.6,0.1,2.3c0.2,0.8,0.6,1.6,1.2,2.4c0.5,0.7,1,1.2,1.6,1.6c0.6,0.4,1.1,0.7,1.8,0.8
				c0.6,0.1,1.3,0.1,2-0.1c0.7-0.2,1.4-0.5,2.2-1.1c0,0,0,0,0.1-0.1c0,0,0.1-0.1,0.2-0.1c0.1,0,0.1-0.1,0.2-0.1s0.1-0.1,0.1-0.1
				l-1.6-1.7c-0.5,0.4-0.9,0.5-1.3,0.5c-0.4,0-0.7-0.2-0.9-0.6c-0.2-0.3-0.3-0.5-0.3-0.8c0-0.3,0.1-0.6,0.2-0.9
				c0.2-0.3,0.4-0.7,0.7-1c0.3-0.4,0.7-0.8,1.2-1.3c0.7-0.6,1.2-1.2,1.5-1.8c0.4-0.6,0.6-1.1,0.8-1.6c0.2-0.5,0.3-1,0.3-1.4
				c0-0.5,0-0.9-0.1-1.3c0.6,0.6,1.3,1,2,1.3c0.7,0.3,1.4,0.5,2,0.6c0.7,0.1,1.4,0,2-0.2c0.7-0.2,1.3-0.5,1.8-0.9
				c0.8-0.6,1.4-1.2,1.9-1.9c0.4-0.7,0.7-1.4,0.8-2.1s0.1-1.5-0.1-2.3s-0.4-1.6-0.8-2.4c-0.3-0.8-0.8-1.6-1.3-2.4
				c-0.5-0.8-1-1.6-1.6-2.4l-7.5-10.2l-2.8,2.1l0.3,0.4C392.3,154.4,392.5,154.8,392.6,155.1z M397.1,161.1l1.5,2
				c0.6,0.8,1,1.5,1.3,2.1c0.3,0.6,0.5,1.2,0.6,1.8c0,0.6-0.1,1.1-0.3,1.6c-0.3,0.5-0.7,1-1.3,1.4c-0.6,0.4-1.2,0.7-1.7,0.8
				c-0.5,0.1-1,0.1-1.5-0.1c-0.5-0.2-1-0.5-1.5-0.9c-0.5-0.4-1-1-1.5-1.7l-1.8-2.5L397.1,161.1z M294.3,95.2l-3.6-1.4l-0.2,0.6
				c-0.3,0.7-0.5,1.2-0.7,1.5c-0.2,0.4-0.5,0.6-0.8,0.7c-0.3,0.1-0.6,0.2-0.9,0.1s-0.7-0.2-1.2-0.3l-6.4-2.5l2.7-7.2l3.6,1.4
				c0.3,0.1,0.5,0.2,0.7,0.3c0.2,0.1,0.3,0.2,0.4,0.4c0.1,0.2,0.1,0.4,0.1,0.7c0,0.3,0,0.6-0.1,1l1.6,0.6l2.5-6.5l-1.6-0.6
				c-0.2,0.4-0.4,0.7-0.6,0.9c-0.2,0.2-0.4,0.3-0.5,0.4c-0.2,0.1-0.4,0.1-0.6,0c-0.2,0-0.4-0.1-0.7-0.2l-3.6-1.4L287,77l6.2,2.4
				c0.4,0.2,0.7,0.3,1.1,0.4c0.3,0.1,0.6,0.3,0.7,0.6c0.2,0.2,0.3,0.5,0.3,0.9c0,0.4-0.1,0.8-0.3,1.4l-0.3,0.8l3.6,1.4l2.6-6.7
				l-21-8l-1.2,3.2l1.3,0.5c0.3,0.1,0.6,0.3,0.7,0.5c0.1,0.2,0.2,0.4,0.2,0.7c0,0.2,0,0.5-0.1,0.8c-0.1,0.3-0.2,0.5-0.3,0.8
				l-5.1,13.3c-0.1,0.3-0.2,0.5-0.3,0.8s-0.3,0.4-0.4,0.6c-0.2,0.2-0.4,0.3-0.6,0.3c-0.2,0-0.5,0-0.8-0.1l-1.4-0.5l-1.3,3.3
				l21.2,8.1L294.3,95.2z M437.5,234c0,0.3-0.1,0.5-0.2,0.7c-0.1,0.2-0.3,0.3-0.5,0.5c-0.2,0.1-0.4,0.2-0.7,0.3l-0.7,0.3l-13,4.6
				c-0.3,0.1-0.6,0.2-0.9,0.3c-0.3,0.1-0.5,0.1-0.7,0c-0.2-0.1-0.4-0.2-0.6-0.4c-0.2-0.2-0.4-0.5-0.5-1l-0.3-0.9l-3.3,1.2l7.1,20.3
				l8.3-2.9l-1.2-3.4c-0.7,0.3-1.4,0.5-2,0.6c-0.6,0.2-1.1,0.2-1.5,0.3c-0.4,0-0.8-0.1-1.1-0.3c-0.3-0.2-0.5-0.5-0.7-1l-2.1-6
				c2.8-1,5.3-1.9,7.5-2.7l7.7-2.7c0.3-0.1,0.5-0.2,0.8-0.2c0.3-0.1,0.5-0.1,0.8,0c0.2,0,0.5,0.2,0.7,0.4c0.2,0.2,0.4,0.5,0.5,0.9
				l0.4,1.2l3.3-1.2c-0.3-0.7-0.5-1.4-0.8-2.1c-0.2-0.6-0.5-1.3-0.7-1.9c-0.2-0.6-0.4-1.2-0.6-1.7c-0.2-0.6-0.4-1.2-0.6-1.8
				c-0.1-0.3-0.2-0.7-0.4-1.1c-0.2-0.5-0.3-0.9-0.5-1.4c-0.2-0.4-0.3-0.9-0.4-1.2c-0.1-0.4-0.2-0.6-0.2-0.7L437,232l0.3,0.9
				C437.5,233.3,437.5,233.7,437.5,234z M413.8,222.8c-0.3,0.1-0.5,0.1-0.7,0.1c-0.2,0-0.4-0.2-0.6-0.4c-0.2-0.2-0.4-0.6-0.6-1
				l-0.3-0.7l-3.2,1.4c0.4,0.9,0.8,1.7,1.2,2.5c0.4,0.8,0.8,1.8,1.3,2.9c0.3,0.6,0.5,1.1,0.7,1.6c0.2,0.5,0.4,1,0.6,1.4
				c0.2,0.4,0.4,0.9,0.6,1.3c0.2,0.4,0.4,0.9,0.6,1.3l3.2-1.4l-0.3-0.8c-0.2-0.5-0.3-0.8-0.4-1.1c-0.1-0.3-0.1-0.5,0-0.7
				s0.2-0.3,0.4-0.4c0.2-0.1,0.5-0.3,0.8-0.4l13.8-6.2c0.3-0.1,0.5-0.2,0.7-0.3c0.2-0.1,0.4-0.1,0.6,0c0.2,0.1,0.4,0.2,0.6,0.4
				c0.2,0.2,0.4,0.5,0.6,1l0.3,0.8l3.2-1.4c-0.2-0.5-0.4-0.9-0.6-1.4c-0.2-0.4-0.4-0.9-0.6-1.4c-0.2-0.5-0.4-1-0.7-1.6
				c-0.3-0.6-0.5-1.2-0.9-1.9c-0.2-0.3-0.3-0.7-0.5-1.1c-0.2-0.4-0.3-0.7-0.5-1.1c-0.2-0.4-0.4-0.8-0.5-1.2
				c-0.2-0.4-0.4-0.9-0.6-1.5l-3.2,1.4l0.3,0.7c0.2,0.5,0.3,0.8,0.3,1.1c0,0.3,0,0.5-0.1,0.7c-0.1,0.2-0.3,0.4-0.6,0.5
				c-0.2,0.1-0.5,0.3-0.9,0.4l-13.1,5.9C414.4,222.6,414.1,222.7,413.8,222.8z M121.1,189.6c0.5-1.7,0.7-3.5,0.7-5.4l-5-3.4l-2.8,3
				c0.9,0.6,1.6,1.3,2.1,1.9s0.8,1.3,1,2c0.1,0.7,0.1,1.4-0.1,2.2c-0.2,0.8-0.6,1.6-1.1,2.4c-0.6,1-1.3,1.7-2.1,2.2
				c-0.8,0.5-1.8,0.8-2.8,0.9c-1,0.1-2.1,0-3.3-0.4c-1.2-0.3-2.4-0.9-3.7-1.7c-1.3-0.8-2.4-1.7-3.3-2.6c-0.8-0.9-1.4-1.8-1.8-2.8
				c-0.4-0.9-0.5-1.9-0.4-2.9c0.1-1,0.5-1.9,1-2.9c1-1.6,2.1-2.6,3.3-2.9c1.2-0.4,2.5-0.2,3.9,0.5l2.1-3.4l-6.9-4.2l-2.3,3.7l1.4,1
				c-0.5,0.1-1,0.3-1.5,0.6c-0.5,0.3-1,0.6-1.5,1c-0.5,0.4-0.9,0.9-1.4,1.3c-0.4,0.5-0.8,1-1.1,1.5c-1.1,1.7-1.7,3.5-2,5.2
				c-0.3,1.7-0.2,3.4,0.2,4.9c0.4,1.6,1.2,3,2.3,4.4c1.1,1.4,2.5,2.6,4.1,3.6c1.6,1,3.2,1.7,4.9,2.1c1.7,0.4,3.3,0.4,4.9,0.1
				c1.6-0.3,3.2-1,4.7-2.1c1.5-1.1,2.9-2.7,4.1-4.7C119.8,193.1,120.6,191.4,121.1,189.6z M401.6,191.7c-0.8,0.1-1.5,0.2-2.1,0.3
				c-0.6,0.1-1,0.1-1.3,0.2c-0.4,0.1-0.8,0.1-1,0.1c-0.3,0-0.5-0.1-0.7-0.2c-0.2-0.1-0.4-0.3-0.6-0.5c-0.2-0.2-0.4-0.6-0.7-0.9
				l-3.1,1.7c0.2,0.4,0.4,0.8,0.6,1.1c0.2,0.3,0.4,0.7,0.6,1c0.2,0.3,0.4,0.7,0.6,1c0.2,0.3,0.4,0.7,0.6,1.1
				c0.5,0.8,0.9,1.6,1.3,2.3c0.4,0.7,0.8,1.4,1.2,2.1l2.8-1.6c0,0-0.1-0.1-0.1-0.3c-0.1-0.1-0.1-0.2-0.2-0.4
				c-0.1-0.1-0.1-0.3-0.2-0.4c-0.1-0.1-0.1-0.2-0.1-0.2c-0.2-0.4-0.3-0.7-0.3-0.9c0-0.2,0.1-0.4,0.4-0.5c0.1,0,0.2-0.1,0.3-0.1
				c0.1,0,0.3-0.1,0.5-0.1c0.1,0,0.4-0.1,0.8-0.2c0.4-0.1,0.9-0.2,1.4-0.3c0.5-0.1,1-0.2,1.4-0.3c0.4-0.1,0.7-0.1,0.9-0.2l4.5,7.9
				l-2.6,2.9c-0.2,0.2-0.4,0.4-0.6,0.6c-0.2,0.2-0.3,0.3-0.5,0.4c-0.2,0.1-0.4,0.1-0.7,0c-0.2-0.2-0.5-0.5-0.8-1
				c0,0-0.1-0.1-0.1-0.2c0-0.1-0.1-0.2-0.2-0.3c-0.1-0.1-0.1-0.2-0.1-0.3c0-0.1-0.1-0.2-0.1-0.2l-2.8,1.6c0.6,1.1,1.2,2.1,1.8,3.1
				c0.5,0.9,1.1,1.9,1.6,2.9c0.5,0.8,0.9,1.6,1.2,2.2c0.3,0.6,0.7,1.3,1.1,2l3-1.7c-0.3-0.6-0.5-1.1-0.6-1.4c-0.1-0.4-0.1-0.7,0-1
				c0.1-0.3,0.4-0.7,0.7-1.1c0.4-0.4,0.9-1,1.5-1.7c0.1-0.2,0.4-0.5,0.9-1c0.4-0.5,1-1.1,1.6-1.9s1.3-1.5,2-2.4
				c0.7-0.9,1.5-1.8,2.2-2.6c1.8-2.1,3.7-4.4,5.8-6.9l-3.8-6.7l-3.5,0.9c-0.3,0-0.7,0.1-1.3,0.2c-0.6,0.1-1.3,0.2-2.1,0.3
				c-0.8,0.1-1.7,0.2-2.7,0.4c-1,0.1-1.9,0.3-2.9,0.4c-1,0.1-2,0.3-2.9,0.4C403.3,191.5,402.4,191.6,401.6,191.7z M418.1,193.3
				L418.1,193.3l-7.3,8.2l-3.6-6.3L418.1,193.3z M302.1,107.7l0.9-1.7c0.2,0.5,0.4,1,0.7,1.6c0.3,0.5,0.7,1,1.1,1.5
				c0.4,0.5,0.9,0.9,1.4,1.3c0.5,0.4,1.1,0.8,1.6,1.1c1.2,0.7,2.4,1.1,3.5,1.3c1.2,0.2,2.2,0.1,3.2-0.1c1-0.2,1.9-0.7,2.7-1.3
				c0.8-0.6,1.5-1.4,2-2.3c0.5-0.9,0.8-1.7,0.9-2.5c0.1-0.8,0.1-1.6-0.1-2.3s-0.4-1.5-0.8-2.2c-0.4-0.7-0.8-1.4-1.3-2
				c-0.8-1-1.5-1.9-2.2-2.7c-0.7-0.8-1.3-1.6-1.8-2.3s-0.8-1.4-1-2.1c-0.2-0.7-0.1-1.3,0.3-2c0.2-0.4,0.5-0.8,0.9-1
				c0.4-0.2,0.8-0.4,1.2-0.5c0.5-0.1,1-0.1,1.5,0.1c0.5,0.1,1.1,0.3,1.6,0.6c1.4,0.8,2.3,1.6,2.6,2.5c0.4,0.9,0.4,2,0,3.1
				c0,0.2-0.1,0.3-0.1,0.5c-0.1,0.2-0.1,0.3-0.1,0.5l3.3,1.9l3.5-6.3c-0.3-0.2-0.6-0.3-0.9-0.5c-0.4-0.2-0.7-0.4-1-0.6
				c-0.3-0.2-0.6-0.3-0.8-0.5c-0.2-0.1-0.4-0.2-0.5-0.3l-0.3,0.5c-0.1,0.1-0.2,0.3-0.2,0.5c-0.1,0.2-0.2,0.3-0.3,0.5
				c-0.5-1.2-1.2-2.2-2-3s-1.8-1.5-2.8-2.1c-1.2-0.7-2.3-1.1-3.5-1.3c-1.1-0.2-2.2-0.2-3.1,0c-1,0.2-1.8,0.6-2.6,1.2
				c-0.8,0.6-1.4,1.3-1.9,2.3c-0.8,1.4-1,2.9-0.7,4.4c0.3,1.5,1.2,3.1,2.6,4.9c0.6,0.8,1.3,1.6,2,2.3c0.7,0.7,1.2,1.5,1.7,2.2
				c0.5,0.7,0.8,1.4,0.9,2c0.1,0.7,0,1.3-0.3,2c-0.3,0.5-0.6,0.9-1,1.1c-0.4,0.3-0.8,0.5-1.3,0.5c-0.5,0.1-1,0-1.6-0.1
				c-0.6-0.1-1.1-0.4-1.7-0.7c-0.8-0.4-1.4-0.9-1.8-1.3c-0.5-0.5-0.8-1-1-1.5c-0.2-0.5-0.3-1.1-0.3-1.7c0-0.6,0.1-1.2,0.4-1.8
				c0.1-0.3,0.2-0.6,0.3-0.9l-3.3-1.9l-3.9,7L302.1,107.7z M359.3,151.1c0.4,0.4,0.8,0.8,1.1,1.2c0.4,0.4,0.7,0.7,1,1.1
				c0.5,0.5,0.9,0.9,1.2,1.3c0.4,0.4,0.7,0.8,1,1.1c0.3,0.4,0.6,0.7,1,1c0.3,0.3,0.6,0.7,1,1l2.6-2.4l-0.8-0.8
				c-0.3-0.3-0.5-0.6-0.6-0.9c-0.1-0.3-0.1-0.5-0.1-0.7c0-0.2,0.1-0.4,0.2-0.5c0.1-0.1,0.2-0.3,0.3-0.4l12.3-11.6l1.7,1.8
				c0.5,0.5,0.9,0.9,1.1,1.3c0.2,0.3,0.4,0.6,0.4,0.9c0,0.3,0,0.5-0.2,0.7c-0.2,0.2-0.4,0.5-0.8,0.8l-1.9,1.8l2.1,2.3l6.3-6
				c-0.4-0.4-0.8-0.8-1.2-1.2c-0.4-0.4-0.8-0.9-1.3-1.3c-0.4-0.5-0.9-0.9-1.3-1.4c-0.4-0.4-0.8-0.9-1.2-1.3l-5.1-5.4
				c-0.2-0.2-0.5-0.5-0.8-0.8c-0.3-0.3-0.6-0.7-1-1c-0.3-0.4-0.7-0.7-1-1.1c-0.4-0.4-0.7-0.8-1-1.1c-0.8-0.8-1.6-1.7-2.5-2.7l-6.3,6
				l2.1,2.3c0.1-0.1,0.3-0.3,0.6-0.5c0.2-0.2,0.5-0.4,0.7-0.7c0.2-0.2,0.5-0.4,0.7-0.6c0.2-0.2,0.4-0.3,0.5-0.4
				c0.2-0.2,0.4-0.4,0.6-0.5s0.4-0.1,0.6-0.1c0.2,0,0.4,0.2,0.7,0.4c0.3,0.2,0.6,0.5,0.9,0.9l2.2,2.3L363.4,147
				c-0.2,0.2-0.4,0.4-0.6,0.5c-0.2,0.2-0.4,0.3-0.7,0.4c-0.2,0.1-0.5,0-0.8-0.1c-0.3-0.1-0.6-0.3-0.9-0.7l-0.8-0.8l-2.6,2.4
				c0.3,0.3,0.7,0.7,1.1,1.1C358.5,150.3,358.9,150.7,359.3,151.1z M207,94.1c0.7,1.7,1.7,3.2,2.8,4.5c1.1,1.3,2.4,2.3,3.9,3
				c1.5,0.7,3.2,1,5,1c1.9,0,3.9-0.5,6.1-1.5c1.9-0.8,3.5-1.8,5-2.9c1.4-1.1,2.7-2.5,3.7-4l-2.1-5.6l-4,0.8c0.4,1,0.6,2,0.6,2.8
				c0,0.8-0.1,1.5-0.4,2.2c-0.3,0.6-0.7,1.2-1.4,1.7s-1.4,0.9-2.3,1.3c-1,0.4-2.1,0.6-3,0.6c-1-0.1-1.9-0.3-2.8-0.9
				c-0.9-0.5-1.7-1.3-2.5-2.2c-0.8-1-1.5-2.2-2.1-3.6c-0.6-1.4-1-2.8-1.2-4c-0.2-1.2-0.1-2.3,0.1-3.3c0.3-1,0.7-1.8,1.4-2.5
				c0.7-0.7,1.5-1.3,2.5-1.7c1.7-0.7,3.2-0.9,4.4-0.5c1.2,0.4,2.2,1.3,2.9,2.6l3.7-1.6l-3.2-7.5l-4,1.7l0.6,1.6
				c-0.5-0.2-1-0.3-1.6-0.3c-0.6-0.1-1.2-0.1-1.8,0c-0.6,0.1-1.3,0.2-1.9,0.3c-0.6,0.2-1.2,0.4-1.8,0.6c-1.9,0.8-3.4,1.8-4.6,3
				c-1.2,1.2-2.1,2.6-2.7,4.1c-0.6,1.5-0.8,3.2-0.7,4.9C205.8,90.5,206.2,92.3,207,94.1z M239.1,72.2c0.6,0,1,0,1.3,0
				c0.3,0.1,0.6,0.2,0.7,0.3c0.2,0.2,0.3,0.4,0.3,0.6c0,0.3,0.1,0.6,0.1,0.9l0.9,14.7c0,0.3,0,0.6,0,0.9c0,0.3-0.1,0.5-0.2,0.6
				c-0.1,0.2-0.3,0.3-0.6,0.4c-0.3,0.1-0.7,0.2-1.3,0.2l-0.6,0l0.2,3.5c0.4,0,0.9-0.1,1.3-0.1c0.4,0,0.9-0.1,1.3-0.1
				c0.5,0,0.9-0.1,1.5-0.1c0.5,0,1.1-0.1,1.7-0.1c0.6,0,1.2-0.1,1.8-0.1c0.6,0,1.1-0.1,1.6-0.1c0.5,0,1-0.1,1.5-0.1
				c0.5,0,1-0.1,1.4-0.1l-0.2-3.5l-0.9,0.1c-0.4,0-0.7,0-1,0c-0.3,0-0.5-0.1-0.6-0.2c-0.2-0.1-0.3-0.2-0.3-0.4
				c-0.1-0.2-0.1-0.4-0.1-0.7l-0.4-6.6l1.7-0.1c0.7,0,1.4,0,1.9,0c0.5,0.1,0.9,0.2,1.3,0.5c0.4,0.4,0.7,1,1,1.7
				c0.3,0.7,0.6,1.5,0.9,2.6c0.3,1.2,0.7,2.2,1.1,3c0.4,0.9,0.9,1.5,1.5,2.1c0.6,0.5,1.2,0.9,2,1.2c0.8,0.2,1.7,0.3,2.7,0.3
				c0.8-0.1,1.6-0.2,2.2-0.4c0.7-0.2,1.2-0.6,1.6-1c0.4-0.5,0.8-1,1-1.7c0.2-0.7,0.3-1.5,0.3-2.4c0,0,0,0,0-0.1c0-0.1,0-0.1,0-0.2
				c0-0.1,0-0.1,0-0.2c0-0.1,0-0.1,0-0.1l-2.3,0.4c0,0.6,0,1.1-0.3,1.4c-0.2,0.3-0.6,0.4-1,0.5c-0.3,0-0.6,0-0.8-0.2
				c-0.2-0.1-0.4-0.4-0.6-0.7c-0.2-0.3-0.3-0.7-0.5-1.2c-0.1-0.5-0.3-1-0.5-1.7c-0.2-0.9-0.4-1.7-0.7-2.3s-0.6-1.1-0.9-1.5
				c-0.3-0.4-0.7-0.7-1.1-1c-0.4-0.3-0.8-0.5-1.2-0.6c0.8-0.2,1.5-0.6,2.2-1c0.6-0.4,1.2-0.9,1.6-1.4c0.4-0.5,0.7-1.1,0.9-1.8
				s0.3-1.3,0.2-2c-0.1-1-0.3-1.9-0.6-2.6c-0.4-0.7-0.8-1.3-1.4-1.8c-0.6-0.5-1.2-0.9-2-1.2c-0.8-0.3-1.6-0.5-2.4-0.6
				c-0.9-0.1-1.8-0.2-2.7-0.2c-0.9,0-1.9,0-2.9,0.1l-12.6,0.8l0.2,3.5L239.1,72.2z M250.4,71.6c0.9-0.1,1.8-0.1,2.5,0
				s1.3,0.2,1.8,0.5c0.5,0.3,0.9,0.6,1.2,1.1c0.3,0.5,0.4,1.1,0.5,1.9c0,0.7,0,1.4-0.2,1.9c-0.2,0.5-0.5,0.9-0.9,1.2
				c-0.4,0.3-0.9,0.6-1.6,0.7c-0.6,0.2-1.4,0.3-2.3,0.3l-3.1,0.2l-0.5-7.7L250.4,71.6z M165.8,120.6c1.1,1.5,2.3,2.8,3.7,3.8
				c1.4,1,2.9,1.7,4.5,2c1.6,0.3,3.3,0.3,5.1-0.2c1.8-0.4,3.7-1.4,5.6-2.8c1.7-1.2,3.1-2.5,4.2-3.9c1.1-1.4,2-3,2.7-4.7l-3.3-5
				l-3.8,1.7c0.6,0.9,1,1.8,1.2,2.6c0.2,0.8,0.3,1.5,0.1,2.2c-0.1,0.7-0.5,1.3-0.9,1.9c-0.5,0.6-1.1,1.2-2,1.8
				c-0.9,0.7-1.9,1.1-2.8,1.2c-1,0.2-2,0.1-2.9-0.2c-1-0.3-2-0.8-2.9-1.6c-1-0.8-1.9-1.8-2.8-3c-0.9-1.3-1.6-2.5-2-3.6
				c-0.4-1.2-0.6-2.2-0.6-3.2c0-1,0.3-1.9,0.8-2.8c0.5-0.8,1.2-1.6,2.1-2.3c1.5-1.1,2.9-1.6,4.2-1.4s2.4,0.8,3.4,1.9l3.3-2.4
				l-4.7-6.6l-3.6,2.6l0.9,1.4c-0.5-0.1-1-0.1-1.6,0c-0.6,0.1-1.2,0.2-1.8,0.4c-0.6,0.2-1.2,0.4-1.8,0.7c-0.6,0.3-1.1,0.6-1.6,1
				c-1.6,1.2-2.9,2.5-3.8,4c-0.9,1.5-1.5,3-1.7,4.6c-0.2,1.6-0.1,3.3,0.4,5C163.9,117.4,164.7,119,165.8,120.6z M336.4,125.5
				c-0.1-0.2-0.2-0.5-0.2-0.7c0-0.2,0-0.4,0.1-0.5c0.1-0.2,0.2-0.3,0.3-0.4l10.1-13.5l2,1.5c0.6,0.4,1,0.8,1.3,1.1
				c0.3,0.3,0.5,0.6,0.6,0.8c0.1,0.3,0,0.5-0.1,0.8c-0.1,0.3-0.3,0.6-0.6,0.9l-1.6,2.1l2.5,1.9l5.2-7c-0.4-0.3-0.9-0.7-1.4-1
				s-1-0.7-1.5-1.1c-0.5-0.4-1-0.7-1.5-1.1c-0.5-0.4-1-0.7-1.4-1.1l-6-4.5c-0.3-0.2-0.6-0.4-0.9-0.7c-0.3-0.3-0.7-0.5-1.1-0.8
				c-0.4-0.3-0.8-0.6-1.2-0.9c-0.4-0.3-0.8-0.6-1.2-0.9c-0.9-0.7-1.9-1.4-2.9-2.2l-5.2,7l2.5,1.9c0.1-0.2,0.3-0.4,0.5-0.6
				c0.2-0.3,0.4-0.5,0.6-0.8c0.2-0.3,0.4-0.5,0.5-0.7c0.2-0.2,0.3-0.4,0.4-0.5c0.2-0.2,0.4-0.4,0.5-0.5c0.2-0.1,0.4-0.2,0.6-0.2
				s0.5,0.1,0.8,0.3c0.3,0.2,0.7,0.4,1.1,0.7l2.5,1.9l-9.7,13c-0.2,0.2-0.3,0.4-0.5,0.6c-0.2,0.2-0.4,0.4-0.6,0.5
				c-0.2,0.1-0.5,0.1-0.8,0.1s-0.6-0.2-1-0.5l-0.9-0.7l-2.1,2.8c0.4,0.3,0.8,0.6,1.2,0.9s0.9,0.6,1.3,1c0.4,0.3,0.9,0.7,1.3,1
				c0.4,0.3,0.8,0.6,1.2,0.9c0.5,0.4,1,0.8,1.4,1.1c0.4,0.3,0.8,0.6,1.2,0.9c0.4,0.3,0.8,0.6,1.1,0.8c0.4,0.3,0.7,0.6,1.1,0.8
				l2.1-2.8l-0.9-0.7C336.7,126,336.5,125.7,336.4,125.5z M108.1,398.1c-0.1,0.1-0.4,0.3-0.7,0.6c-0.3,0.3-0.7,0.6-1.1,0.9
				c-0.4,0.3-0.9,0.7-1.4,1.1c-0.5,0.4-1,0.8-1.5,1.2c-0.5,0.4-1,0.8-1.5,1.2c-0.5,0.4-1,0.8-1.4,1.1c-0.4,0.3-0.8,0.6-1.1,0.9
				c-0.3,0.3-0.5,0.4-0.7,0.5c-0.2,0.2-0.4,0.3-0.6,0.4c-0.2,0.1-0.3,0.1-0.5,0.1c-0.2,0-0.3,0-0.5-0.1c-0.2-0.1-0.4-0.2-0.7-0.3
				l-1.2,2c0.3,0.1,0.5,0.3,0.7,0.4c0.2,0.1,0.5,0.3,0.7,0.4c0.2,0.1,0.5,0.2,0.7,0.4c0.2,0.1,0.5,0.3,0.7,0.4
				c0.5,0.3,1.1,0.6,1.5,0.9c0.5,0.3,0.9,0.5,1.4,0.8l1.1-1.9c0,0-0.1,0-0.2-0.1s-0.2-0.1-0.3-0.1c-0.1-0.1-0.2-0.1-0.2-0.1
				c-0.1,0-0.1-0.1-0.1-0.1c-0.2-0.1-0.4-0.3-0.5-0.4c-0.1-0.1-0.1-0.3,0-0.4c0-0.1,0.1-0.1,0.1-0.2c0.1-0.1,0.2-0.2,0.3-0.2
				c0-0.1,0.2-0.2,0.4-0.4c0.2-0.2,0.4-0.4,0.7-0.6c0.3-0.2,0.5-0.4,0.7-0.6c0.2-0.2,0.4-0.3,0.4-0.4l5.3,3l-0.5,2.6
				c0,0.2-0.1,0.4-0.1,0.5c0,0.2-0.1,0.3-0.1,0.4c-0.1,0.2-0.2,0.2-0.4,0.2c-0.2,0-0.4-0.1-0.8-0.3c0,0-0.1,0-0.1-0.1
				c-0.1,0-0.1-0.1-0.2-0.1c-0.1,0-0.1-0.1-0.2-0.1c-0.1,0-0.1-0.1-0.1-0.1l-1.1,1.9c0.7,0.4,1.4,0.8,2.1,1.1
				c0.6,0.4,1.3,0.7,1.9,1.1c0.6,0.3,1,0.6,1.5,0.8c0.4,0.3,0.9,0.5,1.3,0.8l1.2-2c-0.4-0.2-0.7-0.4-0.8-0.6
				c-0.2-0.2-0.3-0.4-0.3-0.6c0-0.2,0-0.5,0-0.9s0.2-0.9,0.3-1.5c0-0.1,0.1-0.4,0.1-0.9c0.1-0.4,0.2-1,0.3-1.6
				c0.1-0.6,0.2-1.3,0.3-2.1c0.1-0.8,0.3-1.5,0.4-2.3c0.3-1.8,0.6-3.8,1-6l-4.4-2.5L108.1,398.1z M110.4,399.6l-1.4,7.2l-4.2-2.4
				L110.4,399.6L110.4,399.6z M96.9,398.1c0.5-0.7,0.9-1.3,1.2-1.8c0.4-0.5,0.6-1,0.9-1.3s0.3-0.5,0.4-0.5c0.1-0.2,0.2-0.3,0.3-0.5
				c0.1-0.1,0.2-0.2,0.4-0.3c0.1-0.1,0.3-0.1,0.4,0c0.2,0,0.4,0.1,0.6,0.3l0.6,0.4l1.3-2c-0.5-0.3-0.9-0.6-1.3-0.8
				c-0.2-0.1-0.3-0.2-0.5-0.3c-0.2-0.1-0.3-0.2-0.5-0.3c-0.1-0.1-0.3-0.2-0.4-0.3c-0.1-0.1-0.2-0.1-0.2-0.2
				c-0.4-0.2-0.8-0.5-1.2-0.8c-0.4-0.3-0.9-0.6-1.5-1l-1.3,2l0.5,0.3c0.2,0.2,0.4,0.3,0.5,0.4c0.1,0.1,0.2,0.2,0.3,0.3
				c0,0.1,0,0.3,0,0.4c-0.1,0.1-0.1,0.3-0.3,0.5l-5.1,7.7l0,0l0.8-14.7c0,0-0.1-0.1-0.3-0.2c-0.1-0.1-0.3-0.2-0.5-0.3
				c-0.2-0.1-0.4-0.2-0.6-0.4c-0.2-0.1-0.4-0.3-0.6-0.4s-0.3-0.2-0.5-0.3c-0.1-0.1-0.2-0.1-0.3-0.2l-2.9-1.9l-1.3,2l0.6,0.4
				c0.2,0.2,0.4,0.3,0.5,0.4c0.1,0.1,0.2,0.3,0.2,0.4c0,0.1,0,0.3-0.1,0.4s-0.2,0.3-0.3,0.6l-5.4,8.1c-0.1,0.2-0.3,0.4-0.4,0.5
				c-0.1,0.2-0.2,0.3-0.4,0.3c-0.1,0.1-0.3,0.1-0.5,0c-0.2,0-0.4-0.2-0.7-0.3l-0.6-0.4l-1.3,2c0.2,0.2,0.5,0.3,0.7,0.4
				c0.2,0.1,0.4,0.3,0.7,0.4c0.2,0.2,0.5,0.3,0.7,0.5c0.3,0.2,0.5,0.4,0.9,0.6c0.6,0.4,1.1,0.7,1.5,1c0.4,0.3,0.8,0.6,1.3,0.9l1.3-2
				l-0.5-0.4c-0.2-0.2-0.4-0.3-0.6-0.4c-0.1-0.1-0.2-0.2-0.3-0.4c0-0.1,0-0.3,0-0.4c0.1-0.1,0.2-0.3,0.3-0.6l5.3-7.9l0,0l-0.7,15.4
				l3.6,2.4l3.8-5.7C96,399.5,96.5,398.8,96.9,398.1z M300.3,434.9c0.1-0.1,0.4-0.1,0.7-0.2l0.7-0.1l-0.3-2.3
				c-0.6,0.1-1.1,0.1-1.5,0.2c-0.2,0-0.4,0.1-0.6,0.1c-0.2,0-0.4,0.1-0.6,0.1c-0.2,0-0.3,0-0.5,0.1c-0.1,0-0.2,0-0.3,0
				c-0.4,0.1-0.9,0.1-1.4,0.2s-1.1,0.1-1.8,0.2l0.3,2.3l0.6-0.1c0.3,0,0.5,0,0.7,0s0.3,0,0.4,0.1s0.2,0.2,0.2,0.3
				c0.1,0.1,0.1,0.3,0.1,0.6l1.1,9.2l0,0l-9-11.7c-0.1,0-0.2,0-0.3,0c-0.2,0-0.3,0-0.6,0.1c-0.2,0-0.4,0.1-0.7,0.1
				c-0.2,0-0.5,0.1-0.7,0.1c-0.2,0-0.4,0.1-0.6,0.1c-0.2,0-0.3,0-0.3,0l-3.5,0.4l0.3,2.3l0.7-0.1c0.3,0,0.5,0,0.7,0
				c0.2,0,0.3,0.1,0.4,0.2c0.1,0.1,0.2,0.2,0.2,0.4c0,0.2,0.1,0.4,0.1,0.6l1.2,9.6c0,0.3,0.1,0.5,0.1,0.7c0,0.2,0,0.3-0.1,0.5
				c-0.1,0.1-0.2,0.2-0.3,0.3c-0.2,0.1-0.4,0.1-0.7,0.2l-0.7,0.1l0.3,2.3c0.3,0,0.5-0.1,0.8-0.1c0.3,0,0.5-0.1,0.8-0.1
				c0.3,0,0.6-0.1,0.9-0.1c0.3,0,0.6-0.1,1-0.1c0.7-0.1,1.3-0.2,1.8-0.2c0.5-0.1,1-0.1,1.5-0.2l-0.3-2.3l-0.6,0.1
				c-0.3,0-0.5,0.1-0.7,0.1c-0.2,0-0.3,0-0.4-0.1s-0.2-0.2-0.2-0.3c0-0.1-0.1-0.4-0.1-0.6l-1.2-9.4l0,0l9.5,12.1l4.3-0.5l-0.8-6.7
				c-0.1-0.8-0.2-1.7-0.3-2.5c-0.1-0.8-0.2-1.5-0.3-2.2c-0.1-0.6-0.1-1.2-0.2-1.6c0-0.4-0.1-0.6-0.1-0.6c0-0.2,0-0.4,0-0.6
				s0-0.3,0.1-0.4C300.1,435.1,300.2,435,300.3,434.9z M330.4,437.5c0.1,0.7,0.2,1.4,0.1,1.9c-0.1,0.5-0.2,1-0.5,1.4
				c-0.3,0.4-0.6,0.7-1.1,1c-0.5,0.3-1,0.5-1.7,0.6c-0.7,0.2-1.4,0.2-2.1,0c-0.6-0.1-1.2-0.4-1.8-0.9c-0.5-0.4-1-1-1.4-1.8
				s-0.7-1.6-0.9-2.6c-0.2-1-0.3-1.9-0.3-2.8c0-0.8,0.2-1.5,0.5-2.2c0.3-0.6,0.7-1.1,1.2-1.5c0.5-0.4,1.1-0.7,1.9-0.9
				c1.2-0.3,2.2-0.2,2.9,0.2c0.8,0.4,1.3,1.1,1.6,2l2.6-0.6l-1.2-5.3l-2.8,0.7l0.2,1.1c-0.3-0.2-0.6-0.3-1-0.4
				c-0.4-0.1-0.8-0.2-1.2-0.2c-0.4,0-0.8,0-1.3,0c-0.4,0-0.8,0.1-1.2,0.2c-1.3,0.3-2.4,0.8-3.4,1.5c-0.9,0.7-1.7,1.5-2.2,2.4
				c-0.5,0.9-0.9,2-1,3.1c-0.1,1.2-0.1,2.4,0.2,3.7c0.3,1.2,0.7,2.3,1.3,3.3c0.6,1,1.3,1.8,2.2,2.4c0.9,0.6,2,1,3.2,1.2
				c1.2,0.2,2.6,0.1,4.2-0.3c1.3-0.3,2.5-0.7,3.6-1.3s2-1.3,2.9-2.2l-0.7-3.9L330.4,437.5z M278.1,447l0,0.4c0,0.5,0,0.8,0,1.1
				c0,0.3-0.1,0.5-0.3,0.7c-0.1,0.2-0.3,0.3-0.5,0.3c-0.2,0.1-0.5,0.1-0.8,0.1l-4.6,0.3l-0.3-5.1l2.6-0.1c0.2,0,0.4,0,0.5,0
				c0.1,0,0.3,0.1,0.4,0.1c0.1,0.1,0.2,0.2,0.3,0.4c0.1,0.2,0.1,0.4,0.2,0.7l1.1-0.1l-0.3-4.7l-1.1,0.1c0,0.3-0.1,0.5-0.1,0.7
				c-0.1,0.2-0.1,0.3-0.2,0.4c-0.1,0.1-0.2,0.1-0.3,0.2c-0.1,0-0.3,0.1-0.5,0.1l-2.6,0.1l-0.3-4.8l4.4-0.2c0.3,0,0.5,0,0.8,0
				s0.4,0.1,0.6,0.1c0.2,0.1,0.3,0.3,0.4,0.5c0.1,0.2,0.2,0.5,0.2,1l0,0.5l2.6-0.1l-0.3-4.8l-15,0.8l0.1,2.3l0.9-0.1
				c0.2,0,0.4,0,0.6,0.1c0.1,0.1,0.2,0.2,0.3,0.3c0.1,0.1,0.1,0.3,0.1,0.5c0,0.2,0,0.4,0,0.6l0.5,9.5c0,0.2,0,0.4,0,0.6
				c0,0.2,0,0.3-0.1,0.5c-0.1,0.1-0.1,0.3-0.3,0.3c-0.1,0.1-0.3,0.1-0.5,0.1l-1,0.1l0.1,2.3l15.1-0.8l-0.3-5.1L278.1,447z
				 M313.7,445.1c-0.3,0.1-0.6,0.1-0.8,0.1c-0.2,0-0.3,0-0.4-0.1c-0.1-0.1-0.2-0.2-0.2-0.3c0-0.1-0.1-0.3-0.1-0.6l-1.8-9.9
				c0-0.2-0.1-0.4-0.1-0.5c0-0.2,0-0.3,0.1-0.4c0.1-0.1,0.2-0.2,0.4-0.3c0.2-0.1,0.4-0.2,0.7-0.2l0.5-0.1l-0.4-2.3
				c-0.3,0.1-0.7,0.1-1,0.2c-0.3,0.1-0.6,0.1-1,0.2c-0.3,0.1-0.7,0.1-1.1,0.2c-0.4,0.1-0.9,0.2-1.4,0.2c-0.3,0-0.5,0.1-0.8,0.1
				c-0.3,0-0.5,0.1-0.8,0.1c-0.3,0-0.6,0.1-0.9,0.2c-0.3,0.1-0.7,0.1-1.1,0.2l0.4,2.3l0.5-0.1c0.3-0.1,0.6-0.1,0.8,0
				c0.2,0,0.3,0.1,0.5,0.2c0.1,0.1,0.2,0.3,0.2,0.4c0.1,0.2,0.1,0.4,0.1,0.6l1.7,9.4c0,0.2,0.1,0.5,0.1,0.6s0,0.3-0.1,0.5
				c-0.1,0.1-0.2,0.3-0.4,0.3c-0.2,0.1-0.4,0.2-0.8,0.2l-0.5,0.1l0.4,2.3c0.6-0.1,1.2-0.2,1.8-0.3c0.6-0.1,1.3-0.2,2.1-0.4
				c0.4-0.1,0.8-0.1,1.2-0.2c0.4-0.1,0.7-0.1,1-0.2c0.3-0.1,0.6-0.1,0.9-0.2c0.3-0.1,0.6-0.1,0.9-0.2l-0.4-2.3L313.7,445.1z
				 M378.1,424.4c0,0,0-0.1,0-0.1c0,0,0-0.1,0-0.1c0,0,0-0.1,0-0.1l-1.3,0.7c0.2,0.4,0.2,0.7,0.1,0.9c-0.1,0.2-0.3,0.4-0.6,0.5
				c-0.2,0.1-0.4,0.1-0.6,0.1c-0.2,0-0.3-0.1-0.5-0.3s-0.4-0.4-0.5-0.6c-0.2-0.3-0.4-0.6-0.6-1c-0.3-0.5-0.6-1-0.9-1.3
				c-0.3-0.3-0.6-0.6-0.9-0.8c-0.3-0.2-0.6-0.3-0.9-0.4c-0.3-0.1-0.6-0.1-0.9-0.1c0.5-0.3,0.9-0.7,1.2-1.1c0.3-0.4,0.5-0.8,0.7-1.2
				c0.2-0.4,0.2-0.9,0.2-1.3c0-0.5-0.1-0.9-0.3-1.3c-0.3-0.6-0.6-1.1-0.9-1.5c-0.4-0.4-0.8-0.7-1.2-0.9c-0.5-0.2-1-0.3-1.5-0.3
				c-0.5,0-1.1,0-1.7,0.1c-0.6,0.1-1.2,0.2-1.8,0.4c-0.6,0.2-1.2,0.4-1.8,0.6l-7.8,3.1l0.9,2.2l0.3-0.1c0.4-0.1,0.6-0.2,0.8-0.3
				c0.2,0,0.4,0,0.5,0c0.1,0.1,0.2,0.2,0.3,0.3c0.1,0.2,0.2,0.3,0.3,0.6l3.6,9.1c0.1,0.2,0.1,0.4,0.2,0.5c0.1,0.2,0.1,0.3,0,0.4
				c0,0.1-0.1,0.3-0.3,0.4s-0.4,0.3-0.8,0.4l-0.4,0.2l0.9,2.2c0.3-0.1,0.5-0.2,0.8-0.3c0.3-0.1,0.5-0.2,0.8-0.3s0.6-0.2,0.9-0.4
				c0.3-0.1,0.7-0.3,1.1-0.4c0.4-0.2,0.8-0.3,1.1-0.4c0.3-0.1,0.7-0.3,1-0.4c0.3-0.1,0.6-0.2,0.9-0.4c0.3-0.1,0.6-0.2,0.9-0.4
				l-0.9-2.2l-0.5,0.2c-0.2,0.1-0.4,0.2-0.6,0.2c-0.2,0-0.3,0-0.4,0c-0.1,0-0.2-0.1-0.3-0.2c-0.1-0.1-0.2-0.2-0.2-0.4l-1.6-4.1
				l1.1-0.4c0.5-0.2,0.9-0.3,1.2-0.4c0.3-0.1,0.6,0,0.9,0c0.3,0.2,0.6,0.5,1,0.9c0.3,0.4,0.7,0.9,1.1,1.5c0.4,0.7,0.9,1.2,1.3,1.7
				s0.9,0.8,1.4,1c0.5,0.2,1,0.3,1.5,0.3c0.5,0,1.1-0.1,1.7-0.4c0.5-0.2,1-0.5,1.3-0.7c0.4-0.3,0.6-0.6,0.8-1
				c0.2-0.4,0.3-0.8,0.3-1.3C378.4,425.6,378.3,425.1,378.1,424.4C378.1,424.5,378.1,424.5,378.1,424.4z M368.2,420.9
				c-0.2,0.3-0.5,0.6-0.8,0.8c-0.4,0.2-0.8,0.5-1.4,0.7l-1.9,0.8l-1.9-4.8l1.5-0.6c0.6-0.2,1.1-0.4,1.6-0.5c0.5-0.1,0.9-0.1,1.3-0.1
				c0.4,0.1,0.7,0.2,1,0.5c0.3,0.3,0.5,0.6,0.7,1.1c0.2,0.5,0.3,0.9,0.3,1.2C368.5,420.2,368.4,420.6,368.2,420.9z M351.3,422.5
				c0.3-0.1,0.5-0.1,0.7,0s0.3,0.2,0.4,0.3c0.1,0.2,0.2,0.4,0.3,0.7l0.5,1.7l2-0.6l-1.8-5.5c-0.3,0.1-0.7,0.2-1.1,0.4
				c-0.4,0.1-0.8,0.3-1.2,0.4c-0.4,0.1-0.8,0.3-1.2,0.4c-0.4,0.1-0.8,0.3-1.1,0.4l-4.7,1.5c-0.2,0.1-0.4,0.1-0.7,0.2
				c-0.3,0.1-0.6,0.2-0.9,0.3c-0.3,0.1-0.6,0.2-1,0.3c-0.3,0.1-0.7,0.2-1,0.3c-0.7,0.2-1.5,0.5-2.3,0.7l1.8,5.5l2-0.6
				c0-0.1-0.1-0.3-0.2-0.5c-0.1-0.2-0.1-0.4-0.2-0.6c-0.1-0.2-0.1-0.4-0.2-0.6c-0.1-0.2-0.1-0.3-0.1-0.4c-0.1-0.2-0.1-0.4-0.1-0.5
				c0-0.1,0-0.3,0.1-0.4c0.1-0.1,0.2-0.2,0.4-0.3c0.2-0.1,0.5-0.2,0.8-0.3l2-0.6l3.3,10.3c0.1,0.2,0.1,0.3,0.2,0.5
				c0,0.2,0.1,0.3,0,0.5c0,0.2-0.1,0.3-0.3,0.4c-0.1,0.1-0.4,0.3-0.7,0.4l-0.7,0.2l0.7,2.2c0.3-0.1,0.6-0.2,1-0.3
				c0.3-0.1,0.7-0.2,1-0.3c0.4-0.1,0.7-0.2,1-0.3c0.3-0.1,0.7-0.2,0.9-0.3c0.4-0.1,0.8-0.3,1.2-0.4c0.3-0.1,0.7-0.2,1-0.3
				c0.3-0.1,0.6-0.2,0.9-0.3c0.3-0.1,0.6-0.2,0.9-0.3l-0.7-2.2l-0.7,0.2c-0.3,0.1-0.5,0.1-0.7,0.1c-0.2,0-0.3-0.1-0.4-0.1
				c-0.1-0.1-0.2-0.2-0.3-0.3c-0.1-0.1-0.1-0.2-0.1-0.3l-3.5-10.7l1.6-0.5C350.7,422.7,351,422.6,351.3,422.5z M417.2,400.6
				c0.3,0.4,0.5,0.9,0.7,1.2c0.2,0.4,0.3,0.7,0.4,1c0.1,0.3,0.1,0.5,0,0.8c-0.1,0.2-0.3,0.4-0.6,0.6l-3.6,2.2c-1-1.7-2-3.2-2.8-4.5
				l-2.8-4.7c-0.1-0.2-0.2-0.3-0.3-0.5c-0.1-0.2-0.1-0.3-0.1-0.5c0-0.2,0-0.3,0.1-0.5c0.1-0.2,0.3-0.3,0.5-0.5l0.7-0.4l-1.2-2
				c-0.4,0.3-0.9,0.5-1.3,0.8s-0.8,0.5-1.1,0.7s-0.7,0.4-1.1,0.6c-0.3,0.2-0.7,0.4-1.1,0.6c-0.2,0.1-0.4,0.2-0.7,0.4
				c-0.3,0.2-0.6,0.3-0.8,0.5c-0.3,0.2-0.5,0.3-0.7,0.4c-0.2,0.1-0.4,0.2-0.4,0.2l1.2,2l0.5-0.3c0.3-0.2,0.5-0.2,0.7-0.3
				c0.2,0,0.4,0,0.5,0c0.1,0.1,0.3,0.2,0.4,0.3c0.1,0.1,0.2,0.3,0.3,0.4l0.3,0.4l4.8,7.8c0.1,0.2,0.2,0.4,0.3,0.5
				c0.1,0.2,0.1,0.3,0.1,0.5s-0.1,0.3-0.2,0.5c-0.1,0.2-0.3,0.3-0.6,0.5l-0.5,0.3l1.2,2l12.2-7.4l-3-5L417.2,400.6z M405.6,411.6
				c-0.3,0.2-0.5,0.3-0.7,0.3c-0.2,0.1-0.3,0.1-0.4,0c-0.1,0-0.2-0.1-0.3-0.2c-0.1-0.1-0.2-0.3-0.3-0.5l-4.8-8.9
				c-0.1-0.2-0.2-0.3-0.2-0.5c-0.1-0.1-0.1-0.3,0-0.4c0-0.1,0.1-0.3,0.2-0.4c0.1-0.1,0.3-0.3,0.6-0.4l0.5-0.3l-1.1-2.1
				c-0.3,0.2-0.6,0.3-0.9,0.5s-0.6,0.3-0.9,0.5c-0.3,0.2-0.6,0.3-1,0.5c-0.4,0.2-0.8,0.4-1.2,0.7c-0.2,0.1-0.4,0.2-0.7,0.4
				c-0.2,0.1-0.5,0.3-0.7,0.4c-0.2,0.1-0.5,0.3-0.8,0.4c-0.3,0.2-0.6,0.3-1,0.5l1.1,2.1l0.5-0.3c0.3-0.2,0.5-0.3,0.7-0.3
				c0.2,0,0.4,0,0.5,0.1c0.1,0.1,0.3,0.2,0.4,0.3c0.1,0.2,0.2,0.3,0.3,0.6l4.6,8.4c0.1,0.2,0.2,0.4,0.3,0.6c0.1,0.2,0.1,0.3,0.1,0.5
				c0,0.1-0.1,0.3-0.2,0.4c-0.1,0.1-0.3,0.3-0.6,0.5l-0.5,0.3l1.1,2.1c0.5-0.3,1.1-0.6,1.6-0.9c0.5-0.3,1.2-0.6,1.9-1
				c0.4-0.2,0.7-0.4,1-0.6s0.6-0.3,0.9-0.5c0.3-0.2,0.6-0.3,0.8-0.4c0.3-0.1,0.6-0.3,0.8-0.4l-1.1-2.1L405.6,411.6z M396,416.8
				c-0.2,0.1-0.5,0-0.7-0.1c-0.2-0.1-0.5-0.3-0.7-0.5c-0.3-0.3-0.6-0.6-1.1-1.1c-0.1-0.1-0.3-0.3-0.7-0.6c-0.3-0.3-0.7-0.7-1.2-1.1
				c-0.5-0.4-1-0.9-1.5-1.5c-0.5-0.5-1.1-1.1-1.7-1.6c-1.3-1.3-2.8-2.7-4.3-4.2l-4.6,2.2l0.5,2.4c0,0.2,0,0.5,0.1,0.9
				c0,0.4,0.1,0.9,0.1,1.4c0,0.5,0.1,1.2,0.1,1.8c0,0.6,0.1,1.3,0.1,2c0,0.7,0.1,1.3,0.1,2c0,0.6,0.1,1.2,0.1,1.8
				c0,0.5,0.1,1,0.1,1.4c0,0.4,0,0.7,0.1,0.9c0,0.3,0,0.5,0,0.7c0,0.2-0.1,0.3-0.2,0.4c-0.1,0.1-0.2,0.2-0.4,0.4s-0.4,0.2-0.7,0.4
				l1,2.1c0.3-0.1,0.5-0.3,0.8-0.4c0.2-0.1,0.5-0.2,0.7-0.3s0.5-0.2,0.7-0.3s0.5-0.2,0.8-0.4c0.6-0.3,1.1-0.5,1.6-0.8
				c0.5-0.2,1-0.5,1.5-0.7l-0.9-1.9c0,0-0.1,0-0.2,0.1c-0.1,0-0.2,0.1-0.3,0.1c-0.1,0-0.2,0.1-0.3,0.1c-0.1,0-0.1,0.1-0.2,0.1
				c-0.3,0.1-0.5,0.2-0.6,0.2c-0.1,0-0.2-0.1-0.3-0.3c0-0.1-0.1-0.1-0.1-0.2c0-0.1,0-0.2-0.1-0.3c0-0.1,0-0.2-0.1-0.5
				c0-0.3-0.1-0.6-0.1-0.9c0-0.3-0.1-0.6-0.1-0.9c0-0.3-0.1-0.5-0.1-0.6l5.5-2.6l1.8,1.9c0.1,0.2,0.3,0.3,0.4,0.4
				c0.1,0.1,0.2,0.2,0.2,0.3c0.1,0.2,0.1,0.3-0.1,0.4c-0.1,0.1-0.4,0.3-0.7,0.5c0,0-0.1,0-0.1,0.1c-0.1,0-0.1,0.1-0.2,0.1
				c-0.1,0-0.1,0.1-0.2,0.1c-0.1,0-0.1,0.1-0.1,0.1l0.9,2c0.8-0.4,1.5-0.7,2.1-1c0.7-0.3,1.3-0.6,2-1c0.6-0.3,1.1-0.5,1.5-0.7
				c0.4-0.2,0.9-0.4,1.4-0.6l-1-2.1C396.5,416.6,396.2,416.7,396,416.8z M383.3,416.9l-0.8-7.3h0l5.1,5.2L383.3,416.9z M199.5,445
				c-0.1-0.2-0.2-0.5-0.2-0.9c0-0.4-0.1-0.9-0.2-1.5c0-0.1-0.1-0.4-0.1-0.9c-0.1-0.4-0.1-1-0.2-1.6c-0.1-0.6-0.2-1.3-0.3-2.1
				c-0.1-0.8-0.2-1.5-0.3-2.3c-0.3-1.8-0.5-3.8-0.9-6l-5-1.1l-1.1,2.2c-0.1,0.2-0.3,0.4-0.5,0.7s-0.5,0.7-0.8,1.2
				c-0.3,0.5-0.6,1-1,1.5c-0.4,0.5-0.7,1.1-1.1,1.7c-0.4,0.6-0.7,1.1-1.1,1.6c-0.4,0.5-0.7,1-1,1.5c-0.3,0.5-0.6,0.9-0.8,1.2
				s-0.4,0.6-0.5,0.7c-0.2,0.2-0.3,0.4-0.4,0.5s-0.3,0.2-0.4,0.3c-0.1,0-0.3,0.1-0.5,0c-0.2,0-0.5,0-0.8-0.1l-0.5,2.3
				c0.3,0.1,0.6,0.1,0.8,0.2c0.3,0.1,0.5,0.1,0.8,0.1c0.3,0,0.5,0.1,0.8,0.2c0.3,0.1,0.5,0.1,0.8,0.2c0.6,0.1,1.2,0.3,1.7,0.4
				c0.5,0.1,1.1,0.2,1.6,0.4l0.5-2.1c0,0-0.1,0-0.2,0c-0.1,0-0.2,0-0.3-0.1c-0.1,0-0.2,0-0.3-0.1c-0.1,0-0.1,0-0.2,0
				c-0.3-0.1-0.5-0.1-0.6-0.2c-0.1-0.1-0.1-0.2-0.1-0.4c0-0.1,0-0.1,0.1-0.2c0-0.1,0.1-0.2,0.2-0.3c0-0.1,0.1-0.2,0.3-0.5
				c0.1-0.2,0.3-0.5,0.5-0.8c0.2-0.3,0.3-0.6,0.5-0.8c0.2-0.3,0.3-0.4,0.3-0.5l5.9,1.3l0.3,2.6c0,0.2,0,0.4,0.1,0.6
				c0,0.2,0,0.3,0,0.4c0,0.2-0.1,0.3-0.3,0.3c-0.2,0-0.5,0-0.9-0.1c0,0-0.1,0-0.1,0c-0.1,0-0.1,0-0.2,0c-0.1,0-0.1,0-0.2,0
				c-0.1,0-0.1,0-0.1,0l-0.5,2.1c0.8,0.2,1.6,0.3,2.3,0.5c0.7,0.1,1.4,0.3,2.2,0.5c0.6,0.1,1.2,0.3,1.7,0.4c0.5,0.1,1,0.2,1.5,0.3
				l0.5-2.3c-0.4-0.1-0.8-0.2-1-0.3C199.8,445.3,199.6,445.2,199.5,445z M189.9,437.8l3.9-6.3l0,0l0.9,7.3L189.9,437.8z
				 M182.1,429.1c0.1-0.1,0.2-0.1,0.4-0.2c0.2,0,0.4,0,0.7,0.1l0.6,0.2l0.6-2.3c-0.5-0.1-1-0.3-1.5-0.4c-0.2-0.1-0.4-0.1-0.6-0.2
				c-0.2-0.1-0.4-0.1-0.5-0.2c-0.2,0-0.3-0.1-0.4-0.1c-0.1,0-0.2-0.1-0.3-0.1c-0.4-0.1-0.9-0.3-1.4-0.4c-0.5-0.2-1.1-0.3-1.7-0.5
				l-0.6,2.3l0.6,0.2c0.3,0.1,0.5,0.1,0.6,0.2c0.2,0.1,0.3,0.2,0.3,0.3c0.1,0.1,0.1,0.2,0.1,0.4c0,0.1,0,0.3-0.1,0.6l-2.5,8.9l0,0
				l-3.7-14.3c-0.1,0-0.2,0-0.3-0.1c-0.2,0-0.3-0.1-0.5-0.2c-0.2-0.1-0.4-0.1-0.7-0.2c-0.2-0.1-0.5-0.1-0.7-0.2
				c-0.2-0.1-0.4-0.1-0.5-0.2c-0.2,0-0.3-0.1-0.3-0.1l-3.4-1l-0.6,2.3l0.7,0.2c0.3,0.1,0.5,0.2,0.6,0.2c0.1,0.1,0.3,0.2,0.3,0.3
				c0.1,0.1,0.1,0.3,0,0.4c0,0.2-0.1,0.4-0.2,0.6l-2.7,9.3c-0.1,0.2-0.1,0.5-0.2,0.6c-0.1,0.2-0.1,0.3-0.3,0.4
				c-0.1,0.1-0.3,0.2-0.4,0.2c-0.2,0-0.4,0-0.7-0.1l-0.7-0.2l-0.6,2.3c0.3,0.1,0.5,0.2,0.8,0.2c0.3,0.1,0.5,0.1,0.8,0.2
				c0.3,0.1,0.5,0.2,0.8,0.2c0.3,0.1,0.6,0.2,1,0.3c0.6,0.2,1.2,0.4,1.7,0.5c0.5,0.2,1,0.3,1.5,0.4l0.6-2.3l-0.6-0.2
				c-0.3-0.1-0.5-0.2-0.7-0.2c-0.2-0.1-0.3-0.1-0.4-0.3c-0.1-0.1-0.1-0.2-0.1-0.4c0-0.2,0.1-0.4,0.1-0.6l2.6-9.1l0,0l4,14.9l4.2,1.2
				l1.9-6.5c0.2-0.8,0.5-1.6,0.7-2.4c0.2-0.8,0.4-1.5,0.6-2.1c0.2-0.6,0.3-1.1,0.4-1.5c0.1-0.4,0.2-0.6,0.2-0.6
				c0.1-0.2,0.1-0.4,0.2-0.5C181.9,429.3,182,429.2,182.1,429.1z M131.2,410.9c0.1,0.2,0.1,0.3,0,0.5c-0.1,0.2-0.1,0.4-0.3,0.7
				l-0.8,1.6l1.9,0.9l2.6-5.2c-0.3-0.2-0.7-0.3-1-0.5c-0.4-0.2-0.7-0.4-1.1-0.5c-0.4-0.2-0.7-0.4-1.1-0.5c-0.4-0.2-0.7-0.4-1.1-0.5
				l-4.5-2.2c-0.2-0.1-0.4-0.2-0.7-0.3c-0.3-0.1-0.5-0.3-0.8-0.4c-0.3-0.1-0.6-0.3-0.9-0.5c-0.3-0.2-0.6-0.3-0.9-0.5
				c-0.7-0.3-1.4-0.7-2.2-1.1l-2.6,5.2l1.9,0.9c0.1-0.1,0.1-0.3,0.2-0.5c0.1-0.2,0.2-0.4,0.3-0.6c0.1-0.2,0.2-0.4,0.3-0.5
				s0.1-0.3,0.2-0.4c0.1-0.2,0.2-0.3,0.3-0.4c0.1-0.1,0.2-0.2,0.4-0.2c0.1,0,0.3,0,0.5,0.1c0.2,0.1,0.5,0.2,0.8,0.3l1.9,0.9
				l-4.8,9.7c-0.1,0.2-0.2,0.3-0.2,0.5c-0.1,0.2-0.2,0.3-0.3,0.4c-0.1,0.1-0.3,0.1-0.5,0.1c-0.2,0-0.4-0.1-0.7-0.2l-0.7-0.3l-1,2.1
				c0.3,0.1,0.6,0.3,0.9,0.4c0.3,0.2,0.7,0.3,1,0.5s0.7,0.3,1,0.5c0.3,0.2,0.6,0.3,0.9,0.4c0.4,0.2,0.8,0.4,1.1,0.5
				c0.3,0.2,0.6,0.3,0.9,0.5c0.3,0.1,0.6,0.3,0.8,0.4c0.3,0.1,0.6,0.3,0.8,0.4l1-2.1l-0.7-0.3c-0.3-0.1-0.5-0.3-0.6-0.4
				c-0.1-0.1-0.2-0.3-0.2-0.4c0-0.1,0-0.2,0-0.4c0-0.1,0.1-0.2,0.1-0.3l5-10.1l1.5,0.7c0.4,0.2,0.8,0.4,1,0.5
				C131,410.5,131.1,410.7,131.2,410.9z M160.9,422.2c-0.4-1-1.1-1.9-2-2.8c-0.9-0.8-2-1.5-3.4-2c-1.4-0.5-2.7-0.7-3.9-0.7
				c-1.2,0-2.3,0.3-3.3,0.8c-1,0.5-1.9,1.2-2.6,2.1c-0.7,0.9-1.3,1.9-1.8,3.1c-0.4,1.2-0.7,2.4-0.7,3.5c0,1.2,0.2,2.3,0.7,3.3
				c0.4,1,1.1,1.9,2,2.8c0.9,0.8,2,1.5,3.4,2c1.4,0.5,2.6,0.7,3.8,0.7c1.2-0.1,2.3-0.3,3.3-0.8c1-0.5,1.9-1.2,2.6-2.1
				c0.8-0.9,1.3-1.9,1.8-3.1c0.4-1.2,0.7-2.3,0.7-3.5C161.6,424.3,161.3,423.2,160.9,422.2z M156.4,427.3c-0.3,0.9-0.7,1.8-1.2,2.4
				c-0.4,0.7-0.9,1.2-1.4,1.6c-0.5,0.4-1.1,0.6-1.7,0.7c-0.6,0.1-1.3,0-2-0.2c-0.7-0.3-1.2-0.6-1.6-1.1s-0.7-1-0.8-1.6
				c-0.1-0.6-0.2-1.4,0-2.2c0.1-0.8,0.3-1.7,0.7-2.7c0.3-0.9,0.7-1.7,1.1-2.4c0.4-0.7,0.9-1.2,1.4-1.6c0.5-0.4,1.1-0.6,1.7-0.7
				c0.6-0.1,1.3,0,2,0.3c1.4,0.5,2.2,1.4,2.5,2.7C157.4,423.8,157.1,425.4,156.4,427.3z M144.3,413.5c-0.3-0.1-0.6-0.3-0.9-0.4
				c-0.3-0.1-0.6-0.3-0.9-0.4c-0.3-0.1-0.7-0.3-1-0.4c-0.4-0.2-0.8-0.3-1.3-0.6c-0.2-0.1-0.5-0.2-0.7-0.3c-0.2-0.1-0.5-0.2-0.7-0.3
				c-0.3-0.1-0.5-0.2-0.8-0.4c-0.3-0.1-0.6-0.3-1-0.4l-0.9,2.2l0.5,0.2c0.3,0.1,0.5,0.3,0.7,0.4c0.1,0.1,0.2,0.3,0.3,0.4
				c0,0.2,0,0.3,0,0.5s-0.1,0.4-0.2,0.6l-3.8,8.8c-0.1,0.2-0.2,0.4-0.3,0.6c-0.1,0.2-0.2,0.3-0.3,0.4c-0.1,0.1-0.3,0.1-0.5,0.1
				c-0.2,0-0.4-0.1-0.8-0.2l-0.5-0.2l-0.9,2.2c0.6,0.2,1.1,0.5,1.7,0.7c0.6,0.2,1.2,0.5,2,0.8c0.4,0.2,0.8,0.3,1.1,0.5
				s0.6,0.3,0.9,0.4s0.6,0.3,0.9,0.4c0.3,0.1,0.6,0.3,0.9,0.4l0.9-2.2l-0.5-0.2c-0.3-0.1-0.5-0.3-0.7-0.4c-0.2-0.1-0.2-0.2-0.3-0.3
				c0-0.1,0-0.3,0-0.4c0-0.1,0.1-0.3,0.2-0.5l4-9.3c0.1-0.2,0.2-0.3,0.2-0.5c0.1-0.1,0.2-0.2,0.3-0.3c0.1-0.1,0.3-0.1,0.5-0.1
				c0.2,0,0.4,0.1,0.7,0.2l0.5,0.2L144.3,413.5z M233.9,437.2c0.3-0.2,0.6-0.3,0.9-0.4c0.3-0.1,0.7-0.1,1.2-0.1
				c1.1,0.1,1.8,0.3,2.3,0.8c0.5,0.5,0.8,1.1,0.9,1.9c0,0.1,0,0.2,0.1,0.3c0,0.1,0,0.2,0.1,0.3l2.5,0.2l0.3-4.8c-0.2,0-0.4,0-0.7,0
				c-0.3,0-0.5,0-0.8-0.1c-0.2,0-0.5,0-0.6-0.1c-0.2,0-0.3,0-0.3,0l0,0.4c0,0.1,0,0.2,0,0.3c0,0.1,0,0.2,0,0.4
				c-0.6-0.6-1.3-1-2.1-1.2c-0.8-0.2-1.5-0.4-2.3-0.4c-0.9-0.1-1.7,0-2.5,0.2c-0.7,0.2-1.4,0.5-1.9,0.9c-0.5,0.4-0.9,0.9-1.2,1.5
				c-0.3,0.6-0.5,1.2-0.5,1.9c-0.1,1.1,0.2,2.1,0.8,2.9c0.6,0.8,1.6,1.6,2.9,2.2c0.6,0.3,1.2,0.6,1.8,0.8c0.6,0.3,1.2,0.5,1.6,0.8
				c0.5,0.3,0.9,0.6,1.1,1c0.3,0.4,0.4,0.8,0.4,1.3c0,0.4-0.1,0.7-0.3,1c-0.2,0.3-0.4,0.5-0.7,0.7c-0.3,0.2-0.6,0.3-1,0.4
				c-0.4,0.1-0.8,0.1-1.2,0.1c-0.6,0-1.1-0.1-1.5-0.3s-0.8-0.4-1-0.6c-0.3-0.3-0.5-0.6-0.6-0.9c-0.1-0.4-0.3-0.8-0.3-1.2
				c0-0.2-0.1-0.4-0.1-0.6l-2.5-0.2l-0.4,5.3l2.9,0.2l0.1-1.3c0.2,0.3,0.5,0.5,0.9,0.7c0.3,0.2,0.7,0.4,1.1,0.6
				c0.4,0.2,0.8,0.3,1.2,0.4c0.4,0.1,0.9,0.2,1.3,0.2c0.9,0.1,1.7,0,2.5-0.2c0.7-0.2,1.4-0.6,1.9-1c0.5-0.4,1-1,1.3-1.5
				c0.3-0.6,0.5-1.2,0.5-1.9c0-0.6,0-1.2-0.2-1.7c-0.2-0.5-0.4-1-0.7-1.4c-0.3-0.4-0.7-0.8-1.1-1.1c-0.4-0.3-0.9-0.6-1.4-0.8
				c-0.7-0.4-1.5-0.7-2.1-1c-0.7-0.3-1.3-0.6-1.8-0.9c-0.5-0.3-0.9-0.6-1.2-1c-0.3-0.3-0.4-0.8-0.4-1.3c0-0.3,0.1-0.6,0.3-0.9
				C233.4,437.6,233.6,437.3,233.9,437.2z M259.1,448.6c-0.2,0.5-0.5,0.9-0.8,1.2c-0.3,0.3-0.8,0.5-1.3,0.7
				c-0.5,0.1-1.1,0.2-1.8,0.2c-0.8,0-1.4-0.2-2-0.4c-0.6-0.3-1.1-0.7-1.5-1.3c-0.4-0.6-0.7-1.2-0.9-2c-0.2-0.8-0.3-1.7-0.3-2.7
				c0-1,0.1-1.9,0.4-2.7c0.2-0.8,0.5-1.5,1-2c0.4-0.5,0.9-0.9,1.5-1.2c0.6-0.3,1.3-0.4,2-0.4c1.2,0,2.2,0.3,2.8,0.9
				c0.6,0.6,1,1.4,1.1,2.4l2.7,0l0-5.4l-2.9,0l-0.1,1.1c-0.2-0.2-0.5-0.4-0.9-0.6c-0.3-0.2-0.7-0.3-1.1-0.5
				c-0.4-0.1-0.8-0.2-1.2-0.3c-0.4-0.1-0.8-0.1-1.2-0.1c-1.4,0-2.6,0.2-3.6,0.6c-1.1,0.4-2,1-2.7,1.8c-0.8,0.8-1.3,1.7-1.7,2.8
				c-0.4,1.1-0.6,2.3-0.6,3.6c0,1.2,0.2,2.4,0.5,3.5c0.3,1.1,0.9,2,1.6,2.9c0.7,0.8,1.7,1.5,2.8,1.9c1.1,0.5,2.5,0.7,4.1,0.7
				c1.4,0,2.6-0.1,3.8-0.4c1.2-0.3,2.3-0.8,3.3-1.5l0.2-4l-2.7-0.6C259.5,447.4,259.3,448,259.1,448.6z M215.3,445.8
				c-0.1,0.4-0.2,0.7-0.3,1c-0.1,0.3-0.3,0.4-0.5,0.6c-0.2,0.1-0.5,0.1-0.8,0.1l-4.2-0.6c0.3-2,0.5-3.7,0.8-5.3l0.8-5.4
				c0-0.2,0.1-0.4,0.1-0.5c0-0.2,0.1-0.3,0.2-0.5c0.1-0.1,0.2-0.2,0.4-0.3c0.2-0.1,0.4-0.1,0.7,0l0.8,0.1l0.3-2.3
				c-0.5-0.1-1-0.1-1.5-0.2s-0.9-0.1-1.3-0.2c-0.4-0.1-0.8-0.1-1.2-0.2c-0.4-0.1-0.8-0.1-1.2-0.2c-0.2,0-0.5-0.1-0.8-0.1
				c-0.3-0.1-0.6-0.1-0.9-0.2c-0.3-0.1-0.6-0.1-0.8-0.1c-0.2,0-0.4-0.1-0.5-0.1l-0.3,2.3l0.6,0.1c0.3,0,0.5,0.1,0.7,0.2
				c0.2,0.1,0.3,0.2,0.3,0.4c0.1,0.1,0.1,0.3,0.1,0.4c0,0.2,0,0.3,0,0.5l-0.1,0.5l-1.4,9.1c0,0.2-0.1,0.4-0.1,0.6
				c0,0.2-0.1,0.3-0.2,0.4c-0.1,0.1-0.2,0.2-0.4,0.3c-0.2,0.1-0.4,0.1-0.8,0l-0.6-0.1l-0.3,2.3l14.2,2.1l0.9-5.8l-2.4-0.4
				C215.5,444.9,215.4,445.4,215.3,445.8z M249,351.1c0,0,1.7,4.3,1.7,8.2c0.1,5.6-0.2,15.3-1,17.2c-0.7,1.7-0.7,6.3-2,7.8
				c-1.2,1.5-1.2,3-1.2,3h19.3c0,0,1.2-0.7-1.2-4.5c-2.5-3.7-4-11.1-4.5-13.9c-0.5-2.7,0.5-18.3,0.5-18.3s0.3,1,5.7,4.4
				c5.4,3.5,16.3,4,19.8,4c3.5,0,8.7-3.2,11.4-4c2.7-0.7,12.6,0.2,13.9-2.5c1.3-2.7-3.5-3.2-7-4.9c-3.5-1.7-5.7-3.7-5.9-6.2
				c-0.2-2.5,9.7,0.5,12.1,0.2c2.5-0.2-1.2-4-3.7-5.9c-2.5-2-4.7-12.9-7.2-18.6c-2.5-5.7-6.4-1.7-6.7-3.7s6.7-2.7,6.7-6.7
				c0-4-12.1-7.7-13.4-9.7s10.2-4.8,9.3-7.5c-0.9-2.7-12.5-8.7-13.9-15.7c-0.6-3.2,10.4-0.6,12.2-5.3c1.5-3.9-10.1-13-12.4-14.5
				c-2.2-1.5,2.5-7.4,7.1-8.9c1.7-0.5-8.3-7.2-9.8-7.7c-1.5-0.5,0.5-4.7,4.2-5.9c3.7-1.2,10.4-3.1,6.3-6.4
				c-10.4-8.4-14.4-14-14.4-14s8.9-1.2,9.4-4.7c0.5-3.5-7.1-5.3-9-6.8c-2-1.5-2.5-2.5-4.5-4.7c-2-2.2,4.2-4.2,5.7-8.2
				c1.5-4-2-6.2-7.2-13.1c-5.2-6.9-2.7-5.4-2.7-5.4s5.2,0.7,5.9-1.5c0.7-2.2-4-7.9-7.4-11.1c-3.5-3.2-3.7-6.9-3.7-10.1
				c0-3.2,0.7-3.2,1.5-6.4c0.7-3.2-5.4-14.4-5.4-14.4s-6.6,10.7-5.7,14c1.6,5.5,0.7,5.1,0.9,8.5c0.2,3.5-0.7,1-3.2,2
				c-2.5,1-1.2,0.5-3.5,2.2c-2.2,1.7,2.2,4,1.7,7.2c-0.5,3.2,0.5,1.2,3.6,3.5s0.1,4.5-0.8,7.9c-1,3.5-5.7,2.5-8.9,4
				c-3.2,1.5,2,2.7,5.9,5.2c4,2.5,0,0-0.2,4.1s-2,4.3-4.7,6.6c-2.7,2.2-1.5,5.7,0.5,7.2c2,1.5,3-0.7,4.2,1.7c1.2,2.5-2.5,4-8.2,6.7
				c-5.7,2.7-2.7,4.5-0.7,4.5s2.5,0.2,3.5,1.2s-1.2,3.7-8.2,8.4c-6.9,4.7-1.7,1.5-2.7,6.9c-1,5.4,3.5,1.8,6.2,3
				c0.6,0.2-1.4,1.5-2,1.7c-3.1,1-10.2,6.9-5.8,8.5c3.8,1.4,2.6,0.4,5.3-0.9c2.7-1.2,2.5,0.5-2.7,7.2s-10.7,11.5-11.2,12.2
				c-2.2,3.8-1.4,5.4,1.2,5c5.9-0.7,8.7-2.2,8.7-2.2s5.2-2.5,5.4-2c0.2,0.5-2,5.4-7.7,9.2c-5.7,3.7-6.4,12.4-9.4,20.3
				c-3,7.9-2,4.7-4.5,7.9c-2.5,3.2,4,0.2,6.7,0.2c2.7,0,5.4-3.2,6.9-3.7c1.5-0.5,4.2-1,2,3c-2.2,4-17.3,15.1-22.5,19.8
				c-2.9,2.6,0.2,3,0.2,3s1.2,0.6,1.2,2.3c0,2.3,0.3,1.6-0.6,2.6c-1.3,1.5-0.5,3.2-0.2,5.2c0.2,2,4.2,1,6.7,1.2
				c2.5,0.2,5.2-3.7,5.2-3.7s1.7,1.5,0.5,3.7c-1.2,2.2-5.8,5.7-11.4,7.9c-4.8,1.9-5.7,7.3-4.5,8.2c2.3,1.7,12.4-1.5,11.6,0
				c-0.7,1.5,0,2.2-3.7,4.5c-3.7,2.3-2,2.2-7.9,4.2c-5.9,2-4.8,5.6-3.2,7.3c5.8,6.7,7.2-1.6,16.1-2.6c8.9-1,22.3-2,27-6.2
				C249.4,349.2,249,351.1,249,351.1z"/>
		</g>
	</g>
</g>
</svg>
